<svg width="144" height="38" viewBox="0 0 144 38" fill="none" xmlns="http://www.w3.org/2000/svg">
<path d="M35.084 29V9.73633H39.1172V25.8828H49.4531V29H35.084ZM52.2832 11.541V8.71094H56.125V11.541H52.2832ZM52.2832 29V14.207H56.125V29H52.2832ZM64.5879 16.8047V29H60.7598V16.8047H58.5996V14.207H60.7598V12.6621C60.7598 11.3223 61.1152 10.3288 61.8262 9.68164C62.5371 9.03451 63.6172 8.71094 65.0664 8.71094C65.7865 8.71094 66.5977 8.78385 67.5 8.92969V11.4043C67.1263 11.3223 66.7526 11.2812 66.3789 11.2812C65.7227 11.2812 65.2578 11.4134 64.9844 11.6777C64.7201 11.9329 64.5879 12.3887 64.5879 13.0449V14.207H67.5V16.8047H64.5879ZM75.457 29.2734C73.2331 29.2734 71.5241 28.6172 70.3301 27.3047C69.1361 25.9831 68.5391 24.0599 68.5391 21.5352C68.5391 19.0924 69.1452 17.2148 70.3574 15.9023C71.5697 14.5898 73.2878 13.9336 75.5117 13.9336C77.6354 13.9336 79.2578 14.64 80.3789 16.0527C81.5 17.4564 82.0605 19.5163 82.0605 22.2324V22.3418H72.5723C72.5723 23.7819 72.8366 24.8711 73.3652 25.6094C73.903 26.3385 74.6641 26.7031 75.6484 26.7031C77.0065 26.7031 77.8633 26.1152 78.2188 24.9395L81.8418 25.2539C80.7936 27.9336 78.6654 29.2734 75.457 29.2734ZM75.457 16.3535C74.5547 16.3535 73.8574 16.668 73.3652 17.2969C72.8822 17.9258 72.627 18.8053 72.5996 19.9355H78.3418C78.2689 18.7415 77.9818 17.8483 77.4805 17.2559C76.9792 16.6543 76.3047 16.3535 75.457 16.3535ZM100.613 23.4492C100.613 25.3359 99.9115 26.7806 98.5078 27.7832C97.1133 28.7767 95.0625 29.2734 92.3555 29.2734C89.8854 29.2734 87.9486 28.8359 86.5449 27.9609C85.1413 27.0859 84.2389 25.7598 83.8379 23.9824L87.7344 23.3398C87.9987 24.3607 88.5137 25.1035 89.2793 25.5684C90.0449 26.0241 91.1068 26.252 92.4648 26.252C95.2812 26.252 96.6895 25.3952 96.6895 23.6816C96.6895 23.1348 96.5254 22.6836 96.1973 22.3281C95.8783 21.9727 95.4225 21.6764 94.8301 21.4395C94.2467 21.2025 93.1211 20.9154 91.4531 20.5781C90.013 20.2409 89.0104 19.972 88.4453 19.7715C87.8802 19.5618 87.3698 19.3203 86.9141 19.0469C86.4583 18.7643 86.071 18.4271 85.752 18.0352C85.4329 17.6432 85.1823 17.1829 85 16.6543C84.8268 16.1257 84.7402 15.5195 84.7402 14.8359C84.7402 13.0951 85.3919 11.7643 86.6953 10.8438C88.0078 9.91406 89.9128 9.44922 92.4102 9.44922C94.7982 9.44922 96.5892 9.82292 97.7832 10.5703C98.9863 11.3177 99.7611 12.5527 100.107 14.2754L96.1973 14.8086C95.9967 13.9792 95.5866 13.3548 94.9668 12.9355C94.3561 12.5163 93.4766 12.3066 92.3281 12.3066C89.8854 12.3066 88.6641 13.0723 88.6641 14.6035C88.6641 15.1048 88.7917 15.515 89.0469 15.834C89.3112 16.153 89.6986 16.4264 90.209 16.6543C90.7194 16.873 91.7539 17.151 93.3125 17.4883C95.1628 17.8802 96.4844 18.2448 97.2773 18.582C98.0794 18.9102 98.7129 19.2975 99.1777 19.7441C99.6426 20.1816 99.998 20.7103 100.244 21.3301C100.49 21.9408 100.613 22.6471 100.613 23.4492ZM107.08 29.2734C105.649 29.2734 104.533 28.8861 103.73 28.1113C102.928 27.3275 102.527 26.2292 102.527 24.8164C102.527 23.2852 103.024 22.1185 104.018 21.3164C105.02 20.5143 106.469 20.1042 108.365 20.0859L111.551 20.0312V19.2793C111.551 18.3132 111.382 17.5977 111.045 17.1328C110.708 16.6589 110.156 16.4219 109.391 16.4219C108.68 16.4219 108.156 16.5859 107.818 16.9141C107.49 17.2331 107.285 17.7663 107.203 18.5137L103.197 18.3223C103.443 16.8822 104.1 15.793 105.166 15.0547C106.242 14.3073 107.704 13.9336 109.555 13.9336C111.423 13.9336 112.863 14.3939 113.875 15.3145C114.887 16.235 115.393 17.543 115.393 19.2383V24.625C115.393 25.4544 115.484 26.0286 115.666 26.3477C115.857 26.6576 116.172 26.8125 116.609 26.8125C116.901 26.8125 117.184 26.7852 117.457 26.7305V28.8086C117.229 28.8633 117.024 28.9134 116.842 28.959C116.66 29.0046 116.477 29.041 116.295 29.0684C116.113 29.0957 115.917 29.1185 115.707 29.1367C115.507 29.1549 115.27 29.1641 114.996 29.1641C114.03 29.1641 113.314 28.9271 112.85 28.4531C112.394 27.9792 112.12 27.2819 112.029 26.3613H111.947C110.872 28.3027 109.249 29.2734 107.08 29.2734ZM111.551 22.1504L109.582 22.1777C108.689 22.2142 108.055 22.3145 107.682 22.4785C107.308 22.6335 107.021 22.875 106.82 23.2031C106.629 23.5312 106.533 23.9688 106.533 24.5156C106.533 25.2174 106.693 25.7415 107.012 26.0879C107.34 26.4251 107.773 26.5938 108.311 26.5938C108.912 26.5938 109.459 26.4297 109.951 26.1016C110.452 25.7734 110.844 25.3223 111.127 24.748C111.41 24.1647 111.551 23.5495 111.551 22.9023V22.1504ZM127.287 29H122.693L117.402 14.207H121.463L124.047 22.4785C124.184 22.9342 124.507 24.0736 125.018 25.8965C125.109 25.5228 125.296 24.8665 125.578 23.9277C125.861 22.9889 126.909 19.7487 128.723 14.207H132.742L127.287 29ZM134.834 29V17.6797C134.834 16.8685 134.82 16.194 134.793 15.6562C134.775 15.1094 134.752 14.6263 134.725 14.207H138.389C138.416 14.3711 138.452 14.8724 138.498 15.7109C138.544 16.5404 138.566 17.0918 138.566 17.3652H138.621C138.995 16.3262 139.327 15.597 139.619 15.1777C139.911 14.7493 140.257 14.4349 140.658 14.2344C141.059 14.0247 141.561 13.9199 142.162 13.9199C142.654 13.9199 143.051 13.9883 143.352 14.125V17.3379C142.732 17.2012 142.185 17.1328 141.711 17.1328C140.754 17.1328 140.007 17.5202 139.469 18.2949C138.94 19.0697 138.676 20.2181 138.676 21.7402V29H134.834Z" fill="white"/>
<path d="M15.3238 36.157C14.2911 36.2574 13.2081 36.397 12.3707 37.0167C12.2479 37.106 12.1307 37.2176 12.1084 37.3684C12.0693 37.6977 12.5158 37.8317 12.8508 37.8429C18.8631 38.0327 24.8754 38.0494 30.8877 37.8987C30.9658 37.4856 30.5025 37.1953 30.1117 37.0558C25.4727 35.3643 20.147 35.688 15.3238 36.157Z" fill="url(#paint0_linear)"/>
<path d="M15.3238 36.157C14.2911 36.2574 13.2081 36.397 12.3707 37.0167C12.2479 37.106 12.1307 37.2176 12.1084 37.3684C12.0693 37.6977 12.5158 37.8317 12.8508 37.8429C18.8631 38.0327 24.8754 38.0494 30.8877 37.8987C30.9658 37.4856 30.5025 37.1953 30.1117 37.0558C25.4727 35.3643 20.147 35.688 15.3238 36.157Z" fill="url(#paint1_linear)"/>
<path d="M11.9963 28.0511C11.6334 28.8047 11.7953 29.9938 11.9572 31.0265C12.08 31.8025 12.2921 32.6287 12.9062 33.1144C13.2523 33.3879 13.6821 33.5219 14.112 33.6279C16.077 34.1024 18.1705 34.0354 20.0964 33.4381C20.4816 33.3153 20.8723 33.1702 21.1905 32.9245C21.6985 32.5282 21.9721 31.903 22.173 31.2889C22.4466 30.4515 23.1221 28.5647 22.2847 28.1013C21.5478 27.6938 19.1809 28.1962 18.2988 28.1906C17.6289 28.1906 16.959 28.1795 16.3003 28.0231C15.5467 27.8501 14.8098 27.4873 14.0506 27.3477C12.8783 27.13 12.281 27.4593 11.9963 28.0511Z" fill="#2F3F47"/>
<path d="M16.7862 34.7166C16.7918 34.6496 16.7973 34.5826 16.8029 34.51C16.2223 34.1137 15.2008 34.2421 14.5867 34.443C13.928 34.6552 13.9279 35.0683 13.9335 35.7493C13.9391 36.1345 13.9726 36.5755 14.2685 36.8211C14.4974 37.0165 14.8211 37.0389 15.117 37.0612C15.385 37.0779 15.6529 37.0947 15.9209 37.1059C16.1051 37.117 16.3117 37.1226 16.4568 36.9998C16.6019 36.877 16.6243 36.6648 16.641 36.4806C16.6913 35.8945 16.7359 35.3083 16.7862 34.7166Z" fill="#2F3F47"/>
<path d="M17.3224 34.7166C17.3168 34.6496 17.3112 34.5826 17.3057 34.51C17.8862 34.1137 18.9078 34.2421 19.5219 34.443C20.1806 34.6552 20.1806 35.0683 20.175 35.7493C20.1694 36.1345 20.136 36.5755 19.8401 36.8211C19.6112 37.0165 19.2874 37.0389 18.9915 37.0612C18.7236 37.0779 18.4556 37.0947 18.1877 37.1059C18.0034 37.117 17.7969 37.1226 17.6518 36.9998C17.5066 36.877 17.4843 36.6648 17.4675 36.4806C17.4173 35.8945 17.3726 35.3083 17.3224 34.7166Z" fill="#2F3F47"/>
<path d="M3.26013 6.72059C3.27688 6.86015 3.29364 7.0053 3.2434 7.13928C3.20432 7.24534 3.12615 7.32907 3.04799 7.41281C2.71863 7.75334 2.36136 8.07154 1.97617 8.35066C1.54074 8.28925 1.11647 8.17205 0.714535 7.99341C0.641963 7.95991 0.563817 7.92084 0.513575 7.85385C0.474498 7.8036 0.463341 7.73661 0.452177 7.6752C0.301451 6.96065 0.150726 6.2405 0 5.52594C0.223298 5.37522 0.468913 5.25242 0.720123 5.15752C0.820607 5.58736 0.921079 6.0228 1.02156 6.45265C1.11646 6.86575 1.2728 7.34584 1.68032 7.46307C1.92595 7.25094 2.17155 7.03321 2.41717 6.82107C2.46183 6.782 2.50092 6.74293 2.52883 6.69269C2.55674 6.63128 2.54558 6.55871 2.53442 6.48614C2.47301 6.06746 2.3781 5.64875 2.24971 5.24123C2.45626 5.20216 2.65725 5.1631 2.8638 5.12402C3.12059 5.6097 3.19314 6.17351 3.26013 6.72059Z" fill="#2F3F47"/>
<path d="M1.35094 8.3619C1.34536 8.38423 1.35095 8.40656 1.35653 8.42889C1.41794 8.68568 1.47936 8.94248 1.54076 9.19927C1.9427 9.10437 2.33905 8.97598 2.72424 8.82525C2.68516 8.60196 2.62374 8.38422 2.54001 8.17767C2.52326 8.13301 2.49533 8.08276 2.45067 8.06602C2.42276 8.05485 2.38928 8.06043 2.36136 8.06602C2.04317 8.12184 1.73056 8.20002 1.42911 8.3005C1.39561 8.31725 1.36211 8.33399 1.35094 8.3619Z" fill="#2F3F47"/>
<path d="M1.43479 9.44506C1.39571 9.91956 2.04883 10.796 2.2498 11.1868C2.51776 11.7171 2.78572 12.253 3.16533 12.7052C3.54494 13.1629 4.04735 13.537 4.62793 13.6598C4.95729 13.7268 5.29781 13.71 5.63276 13.6654C6.6376 13.537 7.61453 13.1741 8.46306 12.6159C8.53005 12.5712 8.60262 12.521 8.63053 12.4428C8.65844 12.3647 8.63054 12.2753 8.60262 12.1916C8.49656 11.8734 8.3905 11.5217 8.22861 11.2314C7.94391 10.7179 8.12254 10.8072 7.66478 10.8463C7.31308 10.8742 6.81066 11.2426 6.43663 11.3375C6.0012 11.4436 5.54902 11.4994 5.10801 11.5552C4.82889 11.5887 4.51628 11.6166 4.28182 11.4603C4.15342 11.371 4.06412 11.2426 3.98038 11.1086C3.47796 10.3271 3.0202 9.51764 2.61826 8.68585C2.55127 8.54071 1.52409 9.1436 1.4571 9.37248C1.44036 9.39481 1.43479 9.41714 1.43479 9.44506Z" fill="#516770"/>
<g opacity="0.15">
<path opacity="0.15" d="M5.62672 13.3586C5.41458 12.845 5.3197 12.3314 5.29178 11.7843C5.2862 11.6783 5.14106 11.6615 5.12432 11.7732C5.02942 12.3593 5.12431 12.9566 5.33087 13.5093C5.39785 13.7103 5.70487 13.5596 5.62672 13.3586Z" fill="#272525"/>
<path opacity="0.15" d="M4.66097 13.3978C4.51583 12.8731 4.57166 12.4544 4.74472 11.9464C4.76705 11.8794 4.66656 11.8292 4.63306 11.8906C4.47676 12.1474 4.3037 12.3539 4.25346 12.6609C4.20322 12.9512 4.21438 13.2359 4.32045 13.515C4.38744 13.7104 4.71679 13.5988 4.66097 13.3978Z" fill="#272525"/>
</g>
<path d="M9.88645 8.93119C9.12724 9.29964 8.94302 10.2877 8.87603 11.1307C8.4406 16.3112 8.60808 21.5475 9.36729 26.6889C9.46219 27.3142 9.59619 27.9952 10.0874 28.3916C10.4056 28.6484 10.8243 28.7377 11.2263 28.8103C15.3182 29.5583 19.5441 29.5639 23.636 28.827C23.77 28.8047 23.9151 28.7768 24.0268 28.6874C24.1775 28.5702 24.2333 28.3748 24.278 28.1906C25.7462 22.4463 25.4001 16.4173 25.026 10.5054C25.0149 10.2989 24.9981 10.0868 24.9032 9.90812C24.786 9.69041 24.5683 9.54524 24.345 9.43359C23.0722 8.7637 21.5817 8.7079 20.147 8.68557C17.0655 8.62974 13.984 8.65766 10.9025 8.75814C10.5564 8.76372 10.1935 8.78047 9.88645 8.93119Z" fill="#EAF1F2"/>
<path d="M12.0135 7.29021C15.3797 7.97685 18.8185 7.92101 22.1736 7.1283C22.8825 6.96083 23.6473 6.71521 24.1274 5.91692C24.9536 4.53806 24.4177 2.19902 23.3794 1.17743C22.341 0.155843 21.018 0.0832547 19.7731 0.0441776C17.7746 -0.0172293 15.7649 -0.0786252 13.7887 0.334476C12.6443 0.574521 11.4441 1.03785 10.6793 2.31065C9.91454 3.58345 9.86427 5.88342 10.8412 6.78778C11.1817 7.10598 11.606 7.20648 12.0135 7.29021Z" fill="#EAF1F2"/>
<path d="M12.8677 34.9902C15.6534 35.2079 18.4948 35.1911 21.2749 34.9399C21.8611 34.8841 22.4919 34.8059 22.8882 34.5547C23.5693 34.1137 23.1282 33.3712 22.2686 33.0475C21.4089 32.7237 20.3147 32.7014 19.282 32.6846C17.6296 32.6623 15.966 32.6455 14.3303 32.7795C13.3869 32.8577 12.3877 33.0028 11.7568 33.4103C11.126 33.8178 11.0814 34.5491 11.8908 34.8338C12.1811 34.9287 12.5272 34.9623 12.8677 34.9902Z" fill="#EAF1F2"/>
<path d="M13.9173 5.62099C16.1391 5.91686 18.4 5.89452 20.6162 5.54841C21.0851 5.47584 21.5875 5.36977 21.9002 5.02366C22.4472 4.42634 22.09 3.41589 21.4089 2.97488C20.7278 2.53387 19.8514 2.50037 19.0308 2.48362C17.7133 2.45571 16.3903 2.42782 15.084 2.61204C14.3304 2.71811 13.5377 2.91348 13.0352 3.46614C12.5328 4.0188 12.4993 5.01249 13.1413 5.39767C13.3702 5.54282 13.6493 5.58749 13.9173 5.62099Z" fill="#3AD2FF"/>
<path d="M14.3803 8.98725C14.1012 8.98725 13.7718 9.02075 13.6378 9.26638C13.5709 9.38919 13.5709 9.53432 13.5764 9.67388C13.6713 13.0568 13.7718 16.4454 13.8667 19.8283C16.0048 20.3978 18.2824 20.9672 20.387 20.2861C20.6717 16.5738 20.7387 12.8503 20.5824 9.12681C19.7115 8.93701 18.8072 8.94259 17.914 8.95376C16.7417 8.96492 15.5638 8.97609 14.3803 8.98725Z" fill="#E2ECED"/>
<path d="M20.7724 9.12691C20.7668 9.04875 20.7166 8.96501 20.6384 8.94827C19.6782 8.75288 18.7069 8.75846 17.7355 8.76962C16.6191 8.78079 15.5026 8.79195 14.3861 8.79753C13.6436 8.81986 13.3868 9.13249 13.4036 9.86379C13.4371 10.9691 13.465 12.0744 13.4985 13.1854C13.5599 15.396 13.6269 17.6122 13.6883 19.8229C13.6883 19.9066 13.7441 19.9792 13.8223 20.0015C15.9715 20.5765 18.2436 21.1347 20.4375 20.4593C20.5212 20.4313 20.5659 20.3644 20.5714 20.2806C20.8561 16.5739 20.9231 12.8504 20.7724 9.12691ZM20.2197 20.1466C18.171 20.7328 16.0608 20.2192 14.0567 19.6833C14.0065 17.9081 13.9562 16.1329 13.906 14.3577C13.8781 13.4477 13.8557 12.5378 13.8278 11.6223C13.8167 11.1645 13.7999 10.7123 13.7888 10.2546C13.7832 10.0592 13.7776 9.86381 13.772 9.66842C13.7609 9.28323 14.0735 9.17715 14.3917 9.16599C15.3853 9.15482 16.379 9.14925 17.3727 9.13808C18.3887 9.12692 19.4159 9.09342 20.4207 9.27764C20.5491 12.9062 20.4877 16.5292 20.2197 20.1466Z" fill="#2F3F47"/>
<path opacity="0.2" d="M17.6241 19.2814C17.6744 19.2033 17.7023 19.1195 17.7302 19.0358C17.7637 18.9186 17.7916 18.7958 17.7693 18.6729C17.7525 18.578 17.7023 18.4943 17.652 18.405C17.6353 18.3771 17.6185 18.3436 17.6018 18.3157C17.5739 18.271 17.5516 18.2208 17.5125 18.1817C17.4176 18.0756 17.2669 18.0421 17.1273 18.0142C17.0268 17.9975 16.9263 17.9807 16.8203 17.9919C16.5914 18.0198 16.396 18.1929 16.3178 18.4106C16.2397 18.6227 16.2676 18.8683 16.3625 19.0749C16.4853 19.3373 16.7365 19.555 17.0268 19.5773C17.2669 19.5941 17.5013 19.4768 17.6241 19.2814Z" fill="#272525"/>
<path d="M17.4623 19.2477C17.5125 19.1696 17.5405 19.0859 17.5684 19.0021C17.6019 18.8849 17.6298 18.7621 17.6075 18.6392C17.5907 18.5443 17.5405 18.4606 17.4958 18.3713C17.479 18.3434 17.4623 18.3099 17.4456 18.282C17.4177 18.2373 17.3953 18.1871 17.3562 18.148C17.2613 18.0419 17.1106 18.0084 16.971 17.9805C16.8706 17.9638 16.7701 17.947 16.664 17.9582C16.4351 17.9861 16.2397 18.1592 16.1616 18.3769C16.0834 18.5946 16.1114 18.8347 16.2063 19.0412C16.3291 19.3036 16.5803 19.5213 16.8706 19.5436C17.105 19.5659 17.3395 19.4431 17.4623 19.2477Z" fill="#83959E"/>
<path opacity="0.2" d="M17.0098 18.8849C17.0545 18.8235 17.0601 18.751 17.0601 18.6784C17.0601 18.656 17.0601 18.6281 17.0545 18.6058C17.0433 18.5723 17.0154 18.5444 16.9819 18.5221C16.887 18.4607 16.753 18.4551 16.6526 18.5165C16.5576 18.5779 16.5019 18.7119 16.5409 18.8179C16.6023 18.8849 16.6749 18.9408 16.7642 18.9631C16.8535 18.9798 16.954 18.9575 17.0098 18.8849Z" fill="black"/>
<path opacity="0.2" d="M17.6737 27.4206C17.724 27.3424 17.7519 27.2587 17.7798 27.175C17.8133 27.0577 17.8412 26.9349 17.8189 26.8121C17.8021 26.7172 17.7519 26.6335 17.7072 26.5442C17.6905 26.5162 17.6737 26.4827 17.657 26.4548C17.6291 26.4102 17.6067 26.3599 17.5677 26.3208C17.4728 26.2148 17.322 26.1813 17.1825 26.1534C17.082 26.1366 16.9815 26.1199 16.8754 26.1311C16.6466 26.159 16.4512 26.332 16.373 26.5497C16.2949 26.7619 16.3228 27.0075 16.4177 27.2141C16.5405 27.4764 16.7917 27.6941 17.082 27.7165C17.3109 27.7388 17.5509 27.6216 17.6737 27.4206Z" fill="#272525"/>
<path d="M17.5118 27.3928C17.5621 27.3146 17.59 27.2309 17.6179 27.1472C17.6514 27.0299 17.6793 26.9071 17.657 26.7843C17.6402 26.6894 17.59 26.6057 17.5397 26.5164C17.523 26.4884 17.5062 26.4549 17.4895 26.427C17.4616 26.3824 17.4393 26.3321 17.4002 26.293C17.3053 26.187 17.1546 26.1535 17.015 26.1256C16.9145 26.1088 16.814 26.0921 16.708 26.1032C16.4791 26.1311 16.2837 26.3042 16.2055 26.5219C16.1274 26.734 16.1553 26.9797 16.2502 27.1862C16.373 27.4486 16.6242 27.6663 16.9145 27.6887C17.149 27.7054 17.389 27.5882 17.5118 27.3928Z" fill="#83959E"/>
<path opacity="0.2" d="M17.0597 27.03C17.1043 26.9686 17.1043 26.896 17.1099 26.8234C17.1099 26.8011 17.1099 26.7732 17.1043 26.7509C17.0931 26.7174 17.0653 26.6894 17.0318 26.6671C16.9369 26.6057 16.8029 26.6001 16.7024 26.6615C16.6075 26.7229 16.5517 26.8569 16.5907 26.963C16.6521 27.03 16.7247 27.0858 16.814 27.1081C16.8978 27.1249 17.0038 27.1026 17.0597 27.03Z" fill="black"/>
<path d="M25.2437 19.8505C25.3163 19.7277 25.3889 19.6049 25.5061 19.5268C25.601 19.4653 25.7127 19.4486 25.8243 19.4263C26.2933 19.3537 26.7678 19.3202 27.2423 19.3258C27.5549 19.6328 27.8228 19.9901 28.035 20.3753C28.074 20.4479 28.1131 20.526 28.1131 20.6042C28.1131 20.6656 28.0852 20.727 28.0573 20.7884C27.7447 21.4527 27.432 22.1114 27.1194 22.7757C26.8515 22.7646 26.5835 22.7143 26.3211 22.6306C26.4998 22.2287 26.684 21.8211 26.8627 21.4192C27.0357 21.034 27.2032 20.5595 26.952 20.219C26.6282 20.2413 26.3044 20.2636 25.975 20.286C25.9192 20.2915 25.8578 20.2915 25.8132 20.3195C25.7518 20.3529 25.7183 20.4144 25.6848 20.4758C25.4782 20.8498 25.3052 21.2405 25.16 21.6369C24.9702 21.5476 24.786 21.4527 24.5962 21.3634C24.6799 20.8219 24.9646 20.3306 25.2437 19.8505Z" fill="#2F3F47"/>
<path d="M27.7616 19.6998C27.7783 19.6886 27.7895 19.6663 27.8007 19.6439C27.9067 19.4039 28.0128 19.1582 28.1189 18.9182C27.7393 18.7507 27.3485 18.6112 26.9465 18.4995C26.8405 18.7005 26.7623 18.907 26.7009 19.1247C26.6897 19.1694 26.6786 19.2252 26.7065 19.2643C26.7232 19.2922 26.7511 19.3034 26.7791 19.3201C27.0638 19.4709 27.3596 19.5937 27.6667 19.6942C27.6946 19.7053 27.7337 19.7165 27.7616 19.6998Z" fill="#2F3F47"/>
<path d="M28.3476 18.7847C28.6602 18.433 28.6714 17.3388 28.7496 16.909C28.8556 16.3284 28.9673 15.7367 28.9394 15.1449C28.9115 14.5532 28.744 13.9503 28.3532 13.5037C28.1299 13.2525 27.8508 13.0571 27.5549 12.8952C26.6729 12.3928 25.6792 12.0913 24.6688 12.0188C24.5907 12.0132 24.5013 12.0132 24.4343 12.0522C24.3618 12.0969 24.3283 12.1862 24.3059 12.27C24.1999 12.5882 24.0715 12.9287 24.0212 13.2581C23.9375 13.8387 23.8482 13.6544 24.239 13.9056C24.5348 14.0954 25.16 14.1066 25.5173 14.2573C25.9304 14.436 26.3212 14.6648 26.7064 14.8881C26.952 15.0333 27.2144 15.1952 27.3093 15.4631C27.3595 15.6083 27.3484 15.7702 27.3372 15.9265C27.2646 16.8532 27.1418 17.7743 26.9576 18.6842C26.9241 18.8405 28.1076 18.9801 28.2974 18.8405C28.3086 18.8238 28.3253 18.807 28.3476 18.7847Z" fill="#516770"/>
<g opacity="0.15">
<path opacity="0.15" d="M27.3706 13.1349C27.2311 13.6708 26.9966 14.1397 26.6896 14.5975C26.6282 14.6868 26.7398 14.7873 26.818 14.7091C27.2478 14.296 27.5326 13.7657 27.7 13.2019C27.7614 12.9897 27.4265 12.9227 27.3706 13.1349Z" fill="#272525"/>
<path opacity="0.15" d="M28.1631 13.6824C27.9621 14.1904 27.6663 14.4919 27.2197 14.7933C27.1583 14.8324 27.2085 14.9329 27.2755 14.905C27.5602 14.7933 27.817 14.7375 28.0459 14.5198C28.258 14.3188 28.4255 14.0788 28.5092 13.7997C28.5706 13.6043 28.2356 13.4926 28.1631 13.6824Z" fill="#272525"/>
</g>
<defs>
<linearGradient id="paint0_linear" x1="12.1074" y1="36.8892" x2="30.8972" y2="36.8892" gradientUnits="userSpaceOnUse">
<stop stop-color="#4D4D4D"/>
<stop offset="1"/>
</linearGradient>
<linearGradient id="paint1_linear" x1="12.1074" y1="36.8892" x2="30.8972" y2="36.8892" gradientUnits="userSpaceOnUse">
<stop/>
<stop offset="1"/>
</linearGradient>
</defs>
</svg>
