<svg width="113" height="139" viewBox="0 0 113 139" fill="none" xmlns="http://www.w3.org/2000/svg">
<path d="M56.0448 132.24C52.2677 132.608 48.3068 133.118 45.2442 135.385C44.795 135.711 44.3663 136.12 44.2847 136.671C44.1417 137.876 45.775 138.366 47 138.406C68.9893 139.101 90.9786 139.162 112.968 138.61C113.254 137.1 111.559 136.038 110.13 135.528C93.1633 129.341 73.6853 130.525 56.0448 132.24Z" fill="url(#paint0_linear)"/>
<path d="M56.0448 132.24C52.2677 132.608 48.3068 133.118 45.2442 135.385C44.795 135.711 44.3663 136.12 44.2847 136.671C44.1417 137.876 45.775 138.366 47 138.406C68.9893 139.101 90.9786 139.162 112.968 138.61C113.254 137.1 111.559 136.038 110.13 135.528C93.1633 129.341 73.6853 130.525 56.0448 132.24Z" fill="url(#paint1_linear)"/>
<path d="M43.8759 102.594C42.5488 105.35 43.1408 109.699 43.7329 113.476C44.1821 116.314 44.958 119.336 47.2039 121.112C48.4697 122.113 50.0418 122.603 51.6139 122.991C58.8008 124.726 66.4573 124.481 73.5012 122.297C74.91 121.847 76.3391 121.317 77.5029 120.418C79.3609 118.969 80.3613 116.682 81.0963 114.436C82.0968 111.373 84.5673 104.472 81.5047 102.778C78.8096 101.287 70.1527 103.125 66.9268 103.104C64.4767 103.104 62.0267 103.064 59.6174 102.492C56.8611 101.859 54.1661 100.532 51.3894 100.021C47.1018 99.2252 44.9171 100.43 43.8759 102.594Z" fill="#2F3F47"/>
<path d="M61.3936 126.973C61.414 126.728 61.4344 126.483 61.4548 126.218C59.3314 124.768 55.5951 125.238 53.3492 125.973C50.94 126.749 50.9399 128.26 50.9603 130.75C50.9807 132.159 51.1033 133.772 52.1854 134.67C53.0225 135.385 54.2066 135.467 55.2888 135.548C56.2688 135.61 57.2488 135.671 58.2288 135.712C58.9026 135.753 59.6581 135.773 60.1889 135.324C60.7198 134.875 60.8015 134.099 60.8627 133.425C61.0465 131.281 61.2098 129.138 61.3936 126.973Z" fill="#2F3F47"/>
<path d="M63.3546 126.973C63.3342 126.728 63.3139 126.483 63.2935 126.217C65.4168 124.768 69.1531 125.237 71.399 125.972C73.8082 126.748 73.8082 128.259 73.7878 130.75C73.7674 132.159 73.6449 133.772 72.5628 134.67C71.7257 135.385 70.5415 135.466 69.4594 135.548C68.4793 135.609 67.4993 135.67 66.5193 135.711C65.8455 135.752 65.0902 135.773 64.5593 135.323C64.0285 134.874 63.9468 134.098 63.8855 133.425C63.7018 131.281 63.5384 129.137 63.3546 126.973Z" fill="#2F3F47"/>
<path d="M11.9236 24.5805C11.9848 25.0909 12.0461 25.6218 11.8624 26.1118C11.7195 26.4997 11.4335 26.8059 11.1477 27.1122C9.94308 28.3576 8.63642 29.5214 7.22763 30.5423C5.63509 30.3177 4.08337 29.889 2.61333 29.2357C2.34791 29.1132 2.0621 28.9702 1.87834 28.7252C1.73542 28.5415 1.69462 28.2965 1.65379 28.0719C1.10252 25.4585 0.551264 22.8246 0 20.2112C0.816687 19.6599 1.715 19.2108 2.63377 18.8637C3.00128 20.4358 3.36874 22.0284 3.73625 23.6005C4.08334 25.1114 4.65513 26.8672 6.14559 27.296C7.04394 26.5202 7.94219 25.7238 8.84054 24.948C9.00388 24.8051 9.14683 24.6622 9.24891 24.4784C9.351 24.2538 9.31018 23.9884 9.26935 23.723C9.04476 22.1917 8.69765 20.6603 8.22806 19.1699C8.98349 19.027 9.71858 18.8841 10.474 18.7412C11.4132 20.5175 11.6786 22.5796 11.9236 24.5805Z" fill="#2F3F47"/>
<path d="M4.94107 30.5828C4.92065 30.6645 4.94109 30.7461 4.96151 30.8278C5.1861 31.767 5.41072 32.7062 5.63531 33.6454C7.10534 33.2983 8.55495 32.8287 9.96374 32.2775C9.82082 31.4608 9.59619 30.6644 9.28994 29.909C9.22869 29.7457 9.12653 29.5619 8.96319 29.5006C8.86111 29.4598 8.73866 29.4802 8.63657 29.5006C7.47279 29.7048 6.32947 29.9907 5.22694 30.3582C5.10444 30.4195 4.9819 30.4807 4.94107 30.5828Z" fill="#2F3F47"/>
<path d="M5.24785 34.5447C5.10493 36.2802 7.49366 39.4857 8.22868 40.9149C9.2087 42.8545 10.1888 44.8145 11.5771 46.4683C12.9655 48.1425 14.803 49.5105 16.9264 49.9596C18.131 50.2047 19.3764 50.1434 20.6015 49.9801C24.2766 49.5105 27.8496 48.1834 30.953 46.1416C31.198 45.9783 31.4634 45.7946 31.5655 45.5087C31.6676 45.2229 31.5655 44.8962 31.4634 44.5899C31.0755 43.4261 30.6876 42.1399 30.0955 41.0782C29.0542 39.1998 29.7076 39.5265 28.0334 39.6694C26.7471 39.7715 24.9095 41.1191 23.5416 41.4662C21.949 41.8541 20.2952 42.0582 18.6823 42.2623C17.6614 42.3848 16.5181 42.487 15.6606 41.9153C15.191 41.5886 14.8643 41.119 14.5581 40.629C12.7205 37.7706 11.0463 34.8102 9.57628 31.768C9.33127 31.2372 5.57448 33.4422 5.32947 34.2793C5.26822 34.3609 5.24785 34.4426 5.24785 34.5447Z" fill="#516770"/>
<g opacity="0.15">
<path opacity="0.15" d="M20.5809 48.8572C19.805 46.9788 19.458 45.1004 19.3559 43.0996C19.3355 42.7116 18.8047 42.6503 18.7434 43.0587C18.3963 45.2025 18.7434 47.3871 19.4988 49.4084C19.7438 50.1434 20.8667 49.5922 20.5809 48.8572Z" fill="#272525"/>
<path opacity="0.15" d="M17.0481 49.0004C16.5172 47.0812 16.7215 45.5499 17.3544 43.6919C17.4361 43.4469 17.0685 43.2632 16.946 43.4878C16.3743 44.427 15.7414 45.1824 15.5577 46.3054C15.3739 47.3671 15.4147 48.4083 15.8027 49.4291C16.0477 50.1437 17.2523 49.7355 17.0481 49.0004Z" fill="#272525"/>
</g>
<path d="M36.1587 32.6656C33.382 34.0131 32.7082 37.627 32.4632 40.71C30.8706 59.6571 31.4832 78.8084 34.2599 97.6126C34.607 99.8993 35.0971 102.39 36.8938 103.84C38.0576 104.779 39.5888 105.106 41.0589 105.371C56.0246 108.107 71.4804 108.127 86.4462 105.432C86.9362 105.351 87.4671 105.249 87.8754 104.922C88.4267 104.493 88.6309 103.779 88.7942 103.105C94.1639 82.0955 92.898 60.045 91.53 38.4232C91.4892 37.6678 91.428 36.8919 91.0809 36.2386C90.6522 35.4423 89.8559 34.9114 89.0392 34.5031C84.3841 32.053 78.9327 31.8489 73.6855 31.7672C62.4152 31.5631 51.1449 31.6651 39.8746 32.0327C38.6088 32.0531 37.2816 32.1143 36.1587 32.6656Z" fill="#EAF1F2"/>
<path d="M43.9373 26.6631C56.2488 29.1745 68.8258 28.9702 81.0965 26.071C83.6895 25.4585 86.4867 24.5601 88.2425 21.6405C91.2643 16.5974 89.3043 8.04266 85.5067 4.30632C81.7091 0.569978 76.8702 0.304495 72.3172 0.161575C65.0078 -0.0630141 57.6576 -0.287563 50.4299 1.22331C46.2444 2.10125 41.8548 3.79583 39.0576 8.45094C36.2605 13.1061 36.0767 21.518 39.6497 24.8255C40.8951 25.9893 42.4468 26.3569 43.9373 26.6631Z" fill="#EAF1F2"/>
<path d="M47.0624 127.973C57.2505 128.769 67.6429 128.708 77.8106 127.789C79.9544 127.585 82.2616 127.299 83.7112 126.381C86.2021 124.768 84.589 122.052 81.4448 120.868C78.3006 119.684 74.2988 119.602 70.5217 119.541C64.4782 119.459 58.3939 119.398 52.4116 119.888C48.9611 120.174 45.3065 120.705 42.9994 122.195C40.6922 123.686 40.5289 126.36 43.4893 127.401C44.551 127.749 45.8169 127.871 47.0624 127.973Z" fill="#EAF1F2"/>
<path d="M50.9005 20.5589C59.0265 21.641 67.2955 21.5593 75.4011 20.2934C77.1161 20.028 78.9537 19.6401 80.097 18.3742C82.0979 16.1896 80.7912 12.494 78.3003 10.881C75.8094 9.26805 72.6039 9.14554 69.6026 9.08429C64.7841 8.9822 59.9452 8.8802 55.1676 9.55397C52.4113 9.9419 49.5121 10.6564 47.6745 12.6777C45.837 14.699 45.7145 18.3333 48.0625 19.7421C48.8996 20.273 49.9205 20.4363 50.9005 20.5589Z" fill="#3AD2FF"/>
<path d="M52.5952 32.8706C51.5743 32.8706 50.3697 32.9931 49.8797 33.8914C49.6347 34.3406 49.6347 34.8714 49.6551 35.3818C50.0022 47.7546 50.3696 60.1479 50.7167 72.5207C58.5365 74.6032 66.8667 76.6858 74.5639 74.1949C75.6052 60.6175 75.8503 46.9992 75.2786 33.381C72.0935 32.6868 68.7859 32.7072 65.5192 32.7481C61.2316 32.7889 56.9236 32.8297 52.5952 32.8706Z" fill="#E2ECED"/>
<path d="M75.9724 33.3803C75.952 33.0944 75.7682 32.7882 75.4824 32.7269C71.9706 32.0123 68.418 32.0327 64.8655 32.0735C60.782 32.1144 56.6986 32.1552 52.6152 32.1756C49.8997 32.2573 48.9606 33.4007 49.0218 36.0753C49.1443 40.1179 49.2464 44.1606 49.3689 48.2236C49.5935 56.3088 49.8384 64.4143 50.063 72.4995C50.063 72.8058 50.2673 73.0712 50.5531 73.1529C58.4137 75.2558 66.7235 77.2976 74.7474 74.8271C75.0537 74.725 75.217 74.48 75.2374 74.1737C76.2787 60.6167 76.5237 46.9985 75.9724 33.3803ZM73.9511 73.6837C66.458 75.8275 58.7404 73.9491 51.4106 71.9891C51.2269 65.4964 51.0431 59.0038 50.8593 52.5111C50.7572 49.1831 50.6755 45.8552 50.5734 42.5068C50.5326 40.8326 50.4713 39.1788 50.4305 37.5046C50.4101 36.79 50.3897 36.0754 50.3693 35.3608C50.3285 33.952 51.4718 33.564 52.6356 33.5232C56.2698 33.4824 59.9042 33.462 63.5384 33.4211C67.2543 33.3803 71.011 33.2578 74.6861 33.9316C75.1557 47.2027 74.9311 60.4534 73.9511 73.6837Z" fill="#2F3F47"/>
<path opacity="0.2" d="M64.4583 70.5191C64.642 70.2333 64.7441 69.927 64.8462 69.6208C64.9687 69.192 65.0707 68.7428 64.989 68.2936C64.9278 67.9465 64.7441 67.6403 64.5603 67.3136C64.4991 67.2115 64.4378 67.0891 64.3765 66.987C64.2744 66.8237 64.1928 66.6399 64.0499 66.497C63.7028 66.1091 63.1515 65.9865 62.6411 65.8844C62.2736 65.8232 61.9061 65.7619 61.5182 65.8028C60.6811 65.9049 59.9664 66.5378 59.6806 67.3341C59.3948 68.1099 59.4969 69.0083 59.844 69.7637C60.2931 70.7233 61.2119 71.5196 62.2736 71.6013C63.1516 71.6626 64.0091 71.2337 64.4583 70.5191Z" fill="#272525"/>
<path d="M63.8656 70.3966C64.0493 70.1107 64.1514 69.8045 64.2535 69.4982C64.376 69.0695 64.4781 68.6202 64.3964 68.1711C64.3352 67.824 64.1514 67.5177 63.9881 67.1911C63.9268 67.089 63.8656 66.9665 63.8044 66.8645C63.7023 66.7011 63.6206 66.5173 63.4776 66.3743C63.1305 65.9864 62.5793 65.8639 62.0688 65.7618C61.7013 65.7006 61.3338 65.6394 60.9459 65.6802C60.1088 65.7823 59.3942 66.4152 59.1083 67.2115C58.8225 68.0078 58.9246 68.8857 59.2717 69.6412C59.7209 70.6008 60.6397 71.397 61.7013 71.4786C62.5589 71.5603 63.4164 71.1112 63.8656 70.3966Z" fill="#83959E"/>
<path opacity="0.2" d="M62.2113 69.069C62.3746 68.8444 62.3951 68.579 62.3951 68.3136C62.3951 68.2319 62.3951 68.1298 62.3747 68.0482C62.3338 67.9257 62.2317 67.8237 62.1092 67.742C61.7621 67.5174 61.2721 67.497 60.9046 67.7216C60.5575 67.9461 60.3534 68.4361 60.4963 68.824C60.7209 69.069 60.9862 69.2732 61.3129 69.3549C61.6396 69.4162 62.0071 69.3345 62.2113 69.069Z" fill="black"/>
<path opacity="0.2" d="M64.639 100.288C64.8228 100.002 64.9248 99.6956 65.0269 99.3893C65.1494 98.9606 65.2515 98.5113 65.1699 98.0622C65.1086 97.7151 64.9248 97.4089 64.7615 97.0822C64.7002 96.9801 64.6391 96.8575 64.5778 96.7554C64.4757 96.5921 64.394 96.4084 64.2511 96.2654C63.904 95.8775 63.3527 95.755 62.8423 95.653C62.4748 95.5917 62.1073 95.5305 61.7194 95.5713C60.8823 95.6734 60.1676 96.3064 59.8818 97.1026C59.5959 97.8785 59.698 98.7768 60.0451 99.5323C60.4943 100.492 61.4131 101.288 62.4748 101.37C63.3119 101.451 64.1898 101.023 64.639 100.288Z" fill="#272525"/>
<path d="M64.0476 100.186C64.2314 99.8999 64.3335 99.5936 64.4356 99.2874C64.5581 98.8586 64.6602 98.4094 64.5785 97.9602C64.5172 97.6131 64.3334 97.3069 64.1497 96.9802C64.0884 96.8782 64.0271 96.7556 63.9659 96.6535C63.8638 96.4902 63.7822 96.3064 63.6393 96.1635C63.2922 95.7756 62.7409 95.6531 62.2305 95.551C61.863 95.4898 61.4955 95.4284 61.1075 95.4693C60.2704 95.5714 59.5558 96.2043 59.2699 97.0006C58.9841 97.7764 59.0862 98.6748 59.4333 99.4302C59.8825 100.39 60.8013 101.186 61.863 101.268C62.7205 101.329 63.5984 100.9 64.0476 100.186Z" fill="#83959E"/>
<path opacity="0.2" d="M62.394 98.8587C62.5573 98.6341 62.5573 98.3687 62.5777 98.1033C62.5777 98.0216 62.5777 97.9195 62.5573 97.8379C62.5164 97.7154 62.4145 97.6132 62.2919 97.5315C61.9449 97.307 61.4548 97.2865 61.0873 97.5111C60.7402 97.7357 60.536 98.2258 60.6789 98.6137C60.9035 98.8587 61.169 99.0629 61.4956 99.1446C61.8019 99.2058 62.1898 99.1241 62.394 98.8587Z" fill="black"/>
<path d="M92.3273 72.6021C92.5927 72.1529 92.8582 71.7037 93.287 71.4178C93.6341 71.1933 94.0424 71.132 94.4508 71.0503C96.1658 70.7849 97.9012 70.6624 99.6367 70.6829C100.78 71.8058 101.76 73.1125 102.536 74.5213C102.679 74.7867 102.822 75.0725 102.822 75.3583C102.822 75.5829 102.72 75.8076 102.618 76.0321C101.474 78.4618 100.331 80.871 99.1875 83.3006C98.2074 83.2598 97.2274 83.076 96.2678 82.7698C96.9212 81.2997 97.595 79.8093 98.2483 78.3393C98.8813 76.9305 99.4937 75.195 98.575 73.9495C97.3908 74.0312 96.2066 74.1129 95.002 74.1945C94.7978 74.215 94.5732 74.215 94.4099 74.317C94.1853 74.4395 94.0629 74.6642 93.9404 74.8888C93.1849 76.2567 92.552 77.6858 92.0211 79.1355C91.327 78.8088 90.6532 78.4617 89.959 78.135C90.2652 76.1546 91.3065 74.3579 92.3273 72.6021Z" fill="#2F3F47"/>
<path d="M101.536 72.0509C101.597 72.01 101.638 71.9284 101.679 71.8468C102.067 70.9688 102.455 70.0704 102.843 69.1924C101.455 68.5799 100.025 68.0695 98.5553 67.6611C98.1674 68.3962 97.8815 69.1516 97.6569 69.9478C97.6161 70.1112 97.5753 70.3154 97.6774 70.4583C97.7386 70.5604 97.8407 70.6013 97.9428 70.6625C98.9841 71.2138 100.066 71.6629 101.189 72.0304C101.291 72.0713 101.434 72.1121 101.536 72.0509Z" fill="#2F3F47"/>
<path d="M103.679 68.702C104.822 67.4158 104.863 63.414 105.149 61.8419C105.537 59.7185 105.945 57.5544 105.843 55.3901C105.741 53.2259 105.128 51.0209 103.699 49.3875C102.883 48.4687 101.862 47.7541 100.78 47.162C97.5537 45.3244 93.9195 44.2219 90.224 43.9564C89.9381 43.936 89.6114 43.936 89.3664 44.0789C89.1009 44.2423 88.9785 44.569 88.8968 44.8752C88.5089 46.039 88.0393 47.2845 87.8555 48.4891C87.5493 50.6125 87.2226 49.9387 88.6518 50.8575C89.7339 51.5516 92.0206 51.5925 93.3273 52.1437C94.8382 52.7971 96.2674 53.6342 97.6762 54.4509C98.5745 54.9817 99.5342 55.5738 99.8813 56.5538C100.065 57.0846 100.024 57.6768 99.9833 58.2485C99.7179 61.6377 99.2687 65.0065 98.595 68.3345C98.4725 68.9062 102.801 69.4167 103.495 68.9063C103.536 68.845 103.597 68.7837 103.679 68.702Z" fill="#516770"/>
<g opacity="0.15">
<path opacity="0.15" d="M100.105 48.0401C99.5946 50.0001 98.7371 51.7152 97.6142 53.3894C97.3896 53.716 97.7979 54.0836 98.0837 53.7977C99.6558 52.2869 100.697 50.3472 101.31 48.2851C101.534 47.5092 100.309 47.2642 100.105 48.0401Z" fill="#272525"/>
<path opacity="0.15" d="M103.004 50.0413C102.269 51.8993 101.187 53.0019 99.5532 54.1044C99.3286 54.2474 99.5123 54.6148 99.7573 54.5127C100.799 54.1043 101.738 53.9002 102.575 53.1039C103.351 52.3689 103.963 51.491 104.27 50.4701C104.494 49.7555 103.269 49.3471 103.004 50.0413Z" fill="#272525"/>
</g>
<defs>
<linearGradient id="paint0_linear" x1="44.2812" y1="134.918" x2="113.003" y2="134.918" gradientUnits="userSpaceOnUse">
<stop stop-color="#4D4D4D"/>
<stop offset="1"/>
</linearGradient>
<linearGradient id="paint1_linear" x1="44.2812" y1="134.918" x2="113.003" y2="134.918" gradientUnits="userSpaceOnUse">
<stop/>
<stop offset="1"/>
</linearGradient>
</defs>
</svg>
