<svg width="56" height="56" viewBox="0 0 56 56" fill="none" xmlns="http://www.w3.org/2000/svg">
<circle cx="28" cy="28" r="28" fill="#3AD2FF"/>
<path d="M33.1579 26.1461L24.2986 23.5539C23.2732 23.2586 22.5595 22.2988 22.5595 21.2324C22.5595 19.8953 23.6423 18.8125 24.9794 18.8125H30.4181C31.4189 18.8125 32.4033 19.116 33.2236 19.6738C33.724 20.0102 34.3966 19.9281 34.8232 19.5098L37.6779 16.7207C38.2603 16.1547 38.1783 15.2113 37.5302 14.7109C35.5204 13.1359 33.0103 12.2582 30.4345 12.25V8.3125C30.4345 7.59062 29.8439 7 29.122 7H26.497C25.7751 7 25.1845 7.59062 25.1845 8.3125V12.25H24.9794C19.754 12.25 15.554 16.7371 16.038 22.0609C16.3826 25.8426 19.2701 28.9188 22.9122 29.9852L31.3204 32.4461C32.3458 32.7496 33.0595 33.7012 33.0595 34.7676C33.0595 36.1047 31.9767 37.1875 30.6396 37.1875H25.2009C24.2001 37.1875 23.2158 36.884 22.3954 36.3262C21.8951 35.9898 21.2224 36.0719 20.7958 36.4902L17.9412 39.2793C17.3587 39.8453 17.4408 40.7887 18.0888 41.2891C20.0986 42.8641 22.6087 43.7418 25.1845 43.75V47.6875C25.1845 48.4094 25.7751 49 26.497 49H29.122C29.8439 49 30.4345 48.4094 30.4345 47.6875V43.7336C34.2572 43.6598 37.8419 41.3875 39.1052 37.7699C40.8689 32.7168 37.9076 27.5324 33.1579 26.1461V26.1461Z" fill="white"/>
</svg>
