<svg width="408" height="393" viewBox="0 0 408 393" fill="none" xmlns="http://www.w3.org/2000/svg">
<ellipse cx="204" cy="196.5" rx="204" ry="196.5" fill="white"/>
<path d="M277.621 278.075C274.385 278.115 270.694 277.98 268.621 275.735C268.14 275.208 267.766 274.558 267.846 273.882C268.006 272.422 269.972 271.799 271.577 271.556C280.951 270.149 290.539 270.69 300.02 271.258C305.944 271.61 311.935 271.962 317.578 273.598C320.52 274.45 322.86 276.668 319.143 277.642C315.546 278.589 310.036 277.683 306.252 277.723C296.717 277.831 287.169 277.953 277.621 278.075Z" fill="url(#paint0_linear)"/>
<path d="M277.621 278.075C274.385 278.115 270.694 277.98 268.621 275.735C268.14 275.208 267.766 274.558 267.846 273.882C268.006 272.422 269.972 271.799 271.577 271.556C280.951 270.149 290.539 270.69 300.02 271.258C305.944 271.61 311.935 271.962 317.578 273.598C320.52 274.45 322.86 276.668 319.143 277.642C315.546 278.589 310.036 277.683 306.252 277.723C296.717 277.831 287.169 277.953 277.621 278.075Z" fill="url(#paint1_linear)"/>
<path d="M306.372 271.42C305.583 271.42 304.78 271.434 303.991 271.434C303.858 271.434 303.711 271.434 303.604 271.339C303.51 271.245 303.483 271.109 303.457 270.974C303.35 270.136 303.243 269.283 303.122 268.445C303.136 268.553 305.783 268.08 306.104 268.35C306.733 268.837 306.385 270.717 306.372 271.42Z" fill="#F0E5D4"/>
<path d="M289.536 271.407C288.787 271.421 288.038 271.421 287.276 271.407C287.036 271.407 286.768 271.394 286.594 271.218C286.42 271.042 286.407 270.758 286.407 270.514C286.407 269.838 286.407 269.162 286.407 268.486C286.407 268.418 286.407 268.337 286.447 268.269C286.501 268.175 286.621 268.161 286.728 268.148C287.33 268.08 289.122 267.877 289.523 268.432C289.697 268.662 289.429 271.421 289.536 271.407Z" fill="#F0E5D4"/>
<path d="M287.745 154.378C285.324 151.376 283.091 154.689 282.222 157.584C278.718 169.255 277.608 181.779 276.525 194.168C276.351 196.156 276.177 198.13 276.003 200.119C275.375 207.26 274.76 214.414 274.131 221.555C274.091 221.974 281.098 223.773 281.7 223.963C285.364 225.058 289.162 225.126 292.893 224.869C297.56 224.544 302.2 223.719 306.894 223.773C308.886 223.8 310.919 223.976 312.858 223.408C312.056 219.242 311.975 214.955 311.788 210.708C311.36 200.457 310.371 190.232 309.395 180.021C308.846 174.286 308.512 168.43 307.817 162.75C307.429 159.639 306.185 154.202 303.524 152.823C300.689 151.362 299.338 155.176 297.052 156.15C294.444 157.272 291.235 157.448 288.828 155.487C288.373 155.136 288.052 154.743 287.745 154.378Z" fill="#333333"/>
<path d="M310.156 122.419C310.009 121.865 309.955 121.27 309.995 120.702C310.035 120.134 310.263 119.471 310.824 119.363C311.373 119.254 311.827 119.782 312.095 120.269C313.352 122.5 313.673 125.124 313.967 127.667C313.098 127.937 312.188 128.086 311.292 128.073C311.292 127.004 311.038 125.949 310.544 125.002C310.009 124.002 309.193 123.041 309.273 121.905C309.42 121.892 309.567 121.878 309.728 121.865C309.875 122.04 310.009 122.23 310.156 122.419Z" fill="#E8DBCE"/>
<path d="M292.678 159.883C293.681 156.366 301.437 154.906 304.352 153.499C307.508 151.971 310.357 149.78 312.657 147.115C313.165 146.52 313.66 145.885 313.927 145.141C314.649 143.126 310.798 127.775 311.132 127.667L314.462 126.666C316.04 131.156 317.658 135.647 319.196 140.15C320.386 143.626 322.445 147.251 321.79 151.065C321.362 153.472 318.795 155.095 317.096 156.84C315.211 158.787 310.825 163.21 308.431 165.685L301.277 173.002C299.685 176.599 296.008 166.997 295.045 165.766C293.935 164.305 292.117 161.871 292.678 159.883Z" fill="#333333"/>
<path d="M305.81 235.851C305.328 225.802 306.345 215.537 306.251 205.434C306.572 201.931 306.051 198.36 304.74 195.06C304.66 194.858 304.566 194.641 304.406 194.492C303.898 194.005 303.042 194.262 302.387 194.519C296.008 196.994 288.466 196.413 282.649 192.91C281.499 194.56 281.165 196.589 280.884 198.536C280.429 201.701 279.921 204.852 279.8 208.031V208.044C279.774 208.72 279.76 209.41 279.774 210.086C279.854 214.049 280.67 217.944 281.298 221.839C281.713 224.382 282.074 226.951 282.114 229.521C282.141 231.631 282.462 232.402 282.742 235.391C283.237 240.584 283.558 246.251 284.08 251.445C284.641 257.003 285.19 262.575 285.644 268.148C285.658 268.364 285.684 268.594 285.698 268.81C285.992 268.891 290.539 269.879 290.539 268.756C290.9 257.936 291.274 247.117 291.635 236.297C291.782 231.739 291.956 227.127 293.173 222.786C293.681 222.84 294.176 222.881 294.684 222.935C297.452 237.244 298.509 251.499 301.277 265.808C301.517 267.066 301.812 268.432 302.694 269.243C303.577 270.055 306.947 269.906 307.214 268.648C306.438 257.734 306.345 246.792 305.81 235.851Z" fill="#363F4C"/>
<path d="M290.124 270.338C288.506 270.203 286.861 270.271 285.27 270.541C284.04 271.475 282.676 272.245 281.245 272.827C280.83 273.003 280.389 273.165 280.081 273.49C279.774 273.814 279.654 274.369 279.934 274.72C280.188 275.018 280.63 275.059 281.018 275.059C284.013 275.086 287.008 274.829 289.95 274.288C290.124 274.261 290.311 274.22 290.445 274.085C290.552 273.977 290.592 273.841 290.632 273.693C290.94 272.584 290.753 271.326 290.124 270.338Z" fill="#736357"/>
<path d="M302.6 270.42C304.232 270.393 305.85 270.555 307.441 270.92C308.618 271.921 309.928 272.773 311.319 273.449C311.72 273.639 312.148 273.828 312.429 274.18C312.71 274.531 312.804 275.086 312.496 275.424C312.229 275.708 311.787 275.721 311.399 275.694C308.404 275.546 305.435 275.099 302.52 274.382C302.346 274.342 302.159 274.288 302.039 274.152C301.945 274.044 301.905 273.896 301.878 273.76C301.651 272.611 301.918 271.366 302.6 270.42Z" fill="#736357"/>
<path d="M294.11 152.742C292.759 152.728 291.515 151.944 290.579 150.956C287.089 147.305 287.196 141.57 287.53 136.498C287.571 135.957 287.611 135.389 287.918 134.943C288.386 134.253 289.296 134.078 290.111 133.983C293.601 133.983 297.038 134.145 300.555 134.321C300.849 134.334 301.17 134.362 301.398 134.537C301.652 134.74 301.732 135.065 301.786 135.376C302.026 136.837 301.558 138.365 301.585 139.853C301.612 141.381 301.545 142.923 301.277 144.424C300.769 147.359 299.432 150.091 296.918 151.754C296.075 152.322 295.113 152.742 294.11 152.742Z" fill="#F0E5D4"/>
<path d="M279.493 198.293C279.399 198.279 279.359 198.239 279.413 198.144C279.774 197.589 280.349 196.589 280.937 195.398C281.378 189.529 282.074 183.645 283.264 177.857C284.748 170.729 287.931 164.116 289.83 157.097C290.392 155.041 291.328 155.027 293.935 155.135C294.978 155.081 295.42 155.217 295.5 155.23C297.185 155.135 296.61 155.433 297.987 155.014C299.512 154.54 301.103 155.758 301.103 157.042C301.103 158.408 301.13 159.774 301.17 161.154C303.831 172.312 305.436 183.645 305.93 195.033C305.93 195.047 305.93 195.06 305.93 195.074C306.078 195.655 306.225 196.237 306.385 196.832C306.719 197.711 307.08 198.712 307.121 199.496C307.147 199.578 307.161 199.645 307.187 199.726C307.468 200.727 306.813 201.593 305.73 201.931C297.399 204.541 288.479 204.122 280.496 200.862C280.389 200.822 280.282 200.768 280.202 200.714C280.135 200.687 280.068 200.659 279.988 200.632C279.867 200.551 279.734 200.47 279.613 200.389C279.332 200.146 279.159 199.821 279.105 199.483C279.038 199.104 279.172 198.631 279.493 198.293Z" fill="#1A1A1A"/>
<path d="M297.212 119.255C298.175 119.255 299.125 119.255 300.087 119.133C300.489 119.079 300.529 119.66 300.154 119.742C299.218 119.958 298.282 120.188 297.333 120.323C296.637 120.418 296.544 119.255 297.212 119.255Z" fill="#666666"/>
<path d="M302.989 112.222C303.109 112.627 303.109 113.06 303.123 113.466C303.136 113.912 303.23 114.413 303.109 114.846C303.056 115.062 302.735 115.224 302.588 114.981C302.374 114.602 302.334 114.156 302.24 113.736C302.146 113.277 302.013 112.803 302.039 112.33C302.066 111.83 302.855 111.748 302.989 112.222Z" fill="#666666"/>
<path d="M298.697 114.21C299.152 114.467 299.54 114.818 299.941 115.17C300.288 115.481 300.663 115.765 300.877 116.184C300.984 116.374 300.77 116.617 300.569 116.577C300.168 116.495 299.834 116.252 299.499 116.036C299.045 115.738 298.55 115.468 298.176 115.075C297.801 114.697 298.149 113.912 298.697 114.21Z" fill="#666666"/>
<path d="M272.191 161.79C273.315 160.478 283.785 150.808 286.874 156.055C288.305 158.503 285.243 160.532 283.678 162.128C281.258 164.589 278.824 167.051 276.403 169.512C273.889 172.069 271.362 174.625 269.503 177.451C267.217 180.914 265.946 184.755 265.759 188.785C265.732 189.326 265.719 189.881 265.358 190.327C264.983 190.773 264.154 191.057 263.258 190.868C261.787 190.543 261.279 189.353 261.186 188.447C260.142 178.493 265.478 169.688 272.191 161.79Z" fill="#333333"/>
<path d="M265.051 190.976C265.171 191.665 265.626 192.342 265.385 193.004C265.251 193.383 264.89 193.681 264.837 194.073C264.797 194.343 264.917 194.6 264.89 194.871C264.863 195.209 264.609 195.493 264.315 195.655C264.021 195.817 263.673 195.858 263.339 195.858C262.991 195.872 262.63 195.844 262.349 195.655C262.082 195.479 261.921 195.195 261.801 194.898C261.547 194.249 261.534 193.518 261.641 192.828C261.748 192.139 261.975 191.476 262.202 190.813C262.269 190.637 262.336 190.448 262.483 190.326C262.603 190.232 262.764 190.205 262.924 190.178C263.406 190.11 263.914 190.124 264.395 190.191C265.01 190.299 264.957 190.408 265.051 190.976Z" fill="#F0E5D4"/>
<path d="M308.151 117.158C307.87 116.536 307.562 115.846 307.027 115.495C306.412 115.075 305.73 115.251 305.155 115.495C304.5 115.779 303.872 116.117 303.283 116.522C303.029 116.698 302.427 117.09 302.334 117.415C302.2 117.888 302.548 118.389 302.802 118.889C304.38 121.851 305.583 124.38 307.161 127.018C307.375 127.383 307.643 127.788 308.004 127.897C308.231 127.964 308.445 127.897 308.645 127.829C309.715 127.423 312.992 126.274 311.989 124.313C310.745 121.892 309.274 119.66 308.151 117.158Z" fill="#3D3D3D"/>
<path d="M307.549 116.752C307.415 116.536 307.255 116.306 307.041 116.198C306.8 116.076 306.546 116.157 306.332 116.238C305.423 116.59 304.554 117.063 303.698 117.523C303.564 117.591 303.216 117.78 303.149 117.942C303.096 118.037 303.002 118.213 303.002 118.334C303.002 118.754 303.337 119.105 303.497 119.525C303.644 119.903 303.912 120.214 304.086 120.58C304.273 120.972 304.5 121.364 304.714 121.743C305.022 122.311 305.329 122.892 305.61 123.487C305.811 123.907 306.038 124.326 306.212 124.759C306.292 124.962 306.412 125.164 306.573 125.286C306.8 125.475 307.028 125.462 307.255 125.381C307.696 125.232 308.111 125.002 308.512 124.772C309.114 124.434 309.715 124.096 310.331 123.758C310.545 123.636 311.039 123.46 310.946 123.068C310.906 122.852 310.692 122.595 310.585 122.405C310.438 122.148 310.29 121.878 310.157 121.621C309.595 120.58 309.087 119.511 308.525 118.456C308.218 117.875 307.897 117.307 307.549 116.752Z" fill="white"/>
<path d="M304.018 116.739C304.072 116.685 304.152 116.645 304.219 116.604C304.379 116.523 304.553 116.428 304.714 116.347C304.807 116.293 304.941 116.239 304.981 116.293C305.008 116.32 304.995 116.361 304.968 116.388C304.874 116.55 304.085 117.023 303.952 116.902C303.938 116.861 303.965 116.794 304.018 116.739Z" fill="#5E625E"/>
<path d="M305.061 116.198C305.061 116.158 305.101 116.117 305.142 116.117C305.182 116.117 305.222 116.144 305.262 116.185C305.289 116.212 305.303 116.239 305.303 116.28C305.303 116.347 305.236 116.388 305.182 116.375C305.128 116.361 305.075 116.293 305.061 116.225V116.198Z" fill="#5E625E"/>
<path d="M309.648 125.232C309.769 125.259 309.876 125.34 309.956 125.449C309.996 125.503 310.036 125.557 310.063 125.611C310.13 125.76 310.103 125.922 310.036 126.057C309.969 126.179 309.836 126.274 309.715 126.314C309.675 126.328 309.648 126.341 309.608 126.328C309.568 126.328 309.528 126.301 309.488 126.274C309.341 126.179 309.221 126.017 309.18 125.841C309.087 125.53 309.327 125.151 309.648 125.232Z" fill="#EBEFEB"/>
<path d="M286.327 133.185C286.461 132.455 286.648 131.724 287.076 131.129C287.557 130.44 288.333 130.007 289.135 129.763C289.937 129.533 290.78 129.479 291.609 129.452C295.193 129.344 298.95 129.669 301.999 131.589C302.187 131.711 302.374 131.833 302.507 132.008C302.655 132.184 302.735 132.414 302.815 132.631C303.189 133.658 303.577 134.7 303.644 135.795C303.698 136.607 303.591 137.432 303.47 138.243C303.31 139.325 303.136 140.394 302.855 141.449C302.374 143.288 301.571 145.046 300.569 146.656C301.21 145.209 301.117 143.559 300.97 141.976C300.903 141.165 300.823 140.367 300.742 139.555C300.662 138.73 300.542 137.824 299.94 137.27C299.392 136.742 298.576 136.647 297.827 136.634C297.078 136.62 296.289 136.674 295.607 136.377L295.393 135.511C295.42 136.012 295.153 136.499 294.765 136.823C294.377 137.148 293.909 137.324 293.428 137.459C292.906 137.608 292.371 137.716 291.836 137.675C291.315 137.635 290.807 137.445 290.285 137.391C289.763 137.337 289.175 137.418 288.841 137.824C288.52 138.203 288.506 138.744 288.493 139.244C288.453 140.651 288.319 142.044 288.105 143.423C288.025 143.274 287.932 143.126 287.851 142.99C287.463 143.383 287.731 144.018 287.905 144.532C288.105 145.1 288.159 145.722 288.079 146.318C287.517 144.843 286.955 143.369 286.568 141.827C285.872 139.001 285.779 136.039 286.327 133.185Z" fill="#736357"/>
<path d="M227.923 277.616C232.955 277.643 238.716 277.562 241.935 276.304C242.692 276.006 243.26 275.641 243.139 275.249C242.882 274.424 239.839 274.072 237.323 273.937C222.73 273.139 207.799 273.45 193.03 273.761C183.806 273.951 174.474 274.154 165.683 275.087C161.098 275.56 157.46 276.818 163.235 277.372C168.834 277.913 177.422 277.399 183.306 277.426C198.183 277.481 213.06 277.548 227.923 277.616Z" fill="url(#paint2_linear)"/>
<path d="M227.923 277.616C232.955 277.643 238.716 277.562 241.935 276.304C242.692 276.006 243.26 275.641 243.139 275.249C242.882 274.424 239.839 274.072 237.323 273.937C222.73 273.139 207.799 273.45 193.03 273.761C183.806 273.951 174.474 274.154 165.683 275.087C161.098 275.56 157.46 276.818 163.235 277.372C168.834 277.913 177.422 277.399 183.306 277.426C198.183 277.481 213.06 277.548 227.923 277.616Z" fill="url(#paint3_linear)"/>
<path d="M163.072 264.659C163.032 264.673 162.991 264.7 162.964 264.74C162.924 264.794 162.924 264.875 162.924 264.957C162.924 265.416 162.91 265.863 162.924 266.323C162.924 266.39 162.924 266.458 162.951 266.512C162.978 266.607 163.059 266.661 163.14 266.688C163.221 266.715 163.302 266.701 163.397 266.701C163.424 266.701 163.465 266.688 163.492 266.661C163.505 266.634 163.505 266.607 163.505 266.58C163.519 265.998 163.519 265.416 163.519 264.848C163.519 264.781 163.519 264.7 163.478 264.646C163.411 264.564 163.154 264.632 163.072 264.659Z" fill="#333333"/>
<path d="M163.302 262.901C163.275 263.171 163.262 263.442 163.262 263.726C163.248 265.187 163.262 266.647 163.329 268.094C163.343 268.419 163.37 268.784 163.586 268.987C163.749 269.149 163.965 269.176 164.168 269.203C164.249 269.217 164.357 269.217 164.411 269.122C164.425 269.082 164.438 269.041 164.438 269.001C164.56 267.594 164.56 266.174 164.479 264.767C164.452 264.294 164.506 263.266 164.263 262.874C164.073 262.59 163.357 262.455 163.302 262.901Z" fill="#C9C9C9"/>
<path d="M183.359 185.567C182.372 188.299 183.116 191.112 184.32 193.398C186.24 197.036 189.513 199.984 193.692 200.512C195.707 200.769 197.831 200.458 199.927 200.147C200.82 200.011 201.726 199.89 202.605 199.565C203.768 199.146 204.864 198.415 205.865 197.604C207.244 196.481 208.583 194.899 208.488 193.249C208.461 192.667 208.231 192.14 207.988 191.64C206.608 188.826 204.39 186.622 201.875 184.877C199.359 183.133 196.546 181.821 193.746 180.522C192.205 179.806 190.257 178.128 188.364 179.508C187.43 180.184 186.511 181.104 185.713 181.942C185.442 182.254 182.94 185.215 183.359 185.567Z" fill="#4A4F52"/>
<path d="M210.03 200.038C210.814 215.118 213.492 237.258 212.735 252.311C212.681 253.353 213.357 256.504 212.87 257.437C211.761 259.533 208.759 258.195 206.946 256.531C206.514 251.175 204.498 238.624 203.579 233.323C202.51 227.196 201.131 221.123 200.211 214.97C199.386 209.479 198.94 203.92 197.29 198.578C196.627 196.441 195.789 194.331 195.396 192.14C195.004 189.949 195.126 187.596 196.316 185.689C198.209 182.632 205.891 178.548 208.853 182.632C210.368 184.702 209.678 188.123 209.719 190.449C209.773 193.641 209.854 196.833 210.03 200.038Z" fill="#4A4F52"/>
<path d="M178.978 241.938C179.032 244.9 178.775 254.651 179.776 257.437C181.047 257.545 182.345 257.491 183.603 257.275C183.955 257.221 184.333 257.14 184.604 256.896C184.969 256.572 185.05 256.031 185.104 255.544C186.836 241.397 189.243 220.555 192.205 206.625C193.422 200.864 194.788 194.832 193.111 189.192C192.638 187.596 191.894 186.027 190.649 184.918C188.35 182.849 183.454 182.456 180.952 184.512C178.477 186.541 179.465 192.208 179.37 195.034C179.032 205.043 178.856 215.051 178.842 225.059C178.842 230.685 178.883 236.312 178.978 241.938Z" fill="#4A4F52"/>
<path d="M201.28 121.081C200.847 120.135 199.887 119.526 198.886 119.229C197.885 118.931 196.83 118.931 195.789 118.89C194.625 118.836 193.449 118.742 192.299 118.85C191.136 118.958 189.973 119.31 189.067 120.04C188.161 120.77 187.566 121.961 187.741 123.11L187.674 126.505C187.511 129.047 188.215 131.644 189.662 133.741C190.068 134.336 190.541 134.89 191.163 135.255C191.907 135.688 192.813 135.769 193.679 135.783C194.652 135.796 195.667 135.702 196.532 135.269C197.249 134.917 197.817 134.336 198.372 133.768C199.21 132.902 200.049 131.982 200.468 130.86C201.09 129.21 200.766 127.37 201.036 125.626C201.144 124.868 201.374 124.125 201.496 123.354C201.604 122.583 201.604 121.785 201.28 121.081Z" fill="#B8A293"/>
<path d="M185.063 124.125C184.536 124.747 183.386 124.72 183.089 125.477C182.845 126.072 183.332 126.708 183.86 127.1C184.374 127.492 184.996 127.83 185.185 128.452C185.334 128.926 185.199 129.48 185.469 129.9C185.794 130.4 186.497 130.427 186.997 130.738C187.349 130.955 187.592 131.306 187.89 131.577C188.201 131.847 188.634 132.05 189.012 131.888C188.404 129.994 188.106 128.006 188.133 126.032C188.147 125.342 188.228 124.584 188.728 124.125C188.918 123.962 189.134 123.841 189.31 123.665C189.486 123.489 189.594 123.205 189.459 123.002C189.405 122.907 189.31 122.84 189.215 122.786C188.39 122.258 187.335 122.123 186.402 122.366C185.077 122.732 185.753 123.3 185.063 124.125Z" fill="#776C62"/>
<path d="M185.185 114.806C184.753 115.388 184.252 116.037 184.347 116.754C184.387 117.092 184.563 117.389 184.604 117.714C184.658 118.12 184.509 118.525 184.414 118.917C184.239 119.675 184.293 120.567 184.847 121.014C185.294 121.379 185.929 121.325 186.511 121.244C190.298 120.77 194.085 120.297 197.872 119.81C198.872 119.688 199.873 119.553 200.833 119.201C201.442 118.985 202.105 118.552 202.172 117.863C202.213 117.497 202.064 117.146 201.875 116.862C201.212 115.888 199.954 115.361 199.751 114.143C199.67 113.656 199.778 113.142 199.765 112.656C199.738 111.235 198.724 110.072 197.547 109.545C196.37 109.017 195.031 108.99 193.746 108.95C192.448 108.909 191.123 108.828 189.973 108.206C189.608 108.003 189.202 107.746 188.81 107.895C188.12 108.138 187.458 109.869 187.201 110.613C186.66 112.169 186.173 113.494 185.185 114.806Z" fill="#97A8B2"/>
<path d="M185.74 123.557C187.444 123.597 189.161 123.151 190.852 122.826C194.057 122.191 197.303 121.947 200.522 122.096C201.279 122.137 202.104 122.164 202.713 121.636C203.511 120.946 203.524 119.54 202.929 118.688C202.727 118.404 202.47 118.147 202.145 118.039C201.82 117.93 201.469 117.957 201.131 117.998C197.371 118.39 193.611 118.999 189.892 119.824C188.174 120.202 186.159 120.446 184.509 121.176C182.48 122.096 184.482 123.53 185.74 123.557Z" fill="#537082"/>
<path d="M202.118 136.297C203.931 136.986 204.431 139.191 204.702 141.071C206.73 155.623 209.259 170.108 212.302 184.485C212.492 185.351 212.667 186.243 212.519 187.109C212.316 188.326 211.464 189.381 210.49 190.179C207.285 192.83 202.768 193.29 198.561 193.519C192.989 193.817 187.336 193.898 181.885 192.708C180.398 192.383 178.748 191.829 178.126 190.476C177.72 189.611 177.842 188.624 177.963 187.677C179.275 177.533 180.587 167.403 181.912 157.26C182.562 152.296 182.994 147.265 183.847 142.342C184.32 139.597 185.496 137.325 188.445 136.594C190.311 136.134 192.218 136.405 194.098 136.5C196.478 136.635 199.887 135.445 202.118 136.297Z" fill="#67302D"/>
<path d="M173.243 160.736C173.825 158.22 174.42 155.677 175.461 153.419C176.327 151.552 177.49 149.916 178.667 148.32C181.169 144.898 183.752 141.571 186.403 138.312C186.673 137.987 186.971 137.635 187.363 137.635C187.863 137.635 188.229 138.204 188.499 138.717C190.65 142.667 192.11 144.493 190.866 148.847C190.176 151.228 188.526 153.216 187.025 154.947C181.358 161.493 176.029 171.231 173.771 180.414C173.527 181.388 173.311 182.416 172.729 183.132C171.958 184.093 169.132 183.484 168.388 182.05C167.739 180.806 168.834 177.317 169.064 175.91C169.957 170.636 172.04 165.902 173.243 160.736Z" fill="#67302D"/>
<path d="M212.573 148.239C215.832 153.013 217.563 158.924 218.226 164.915C218.889 170.906 219.538 177.209 218.943 183.241C218.916 183.444 218.889 183.674 218.754 183.809C218.618 183.944 218.415 183.944 218.226 183.944C217.59 183.931 215.602 183.701 214.372 183.593C213.925 183.552 213.574 183.173 213.574 182.713C213.574 178.467 213.276 174.22 212.667 170.041C212.248 167.16 211.829 164.131 210.247 161.831C207.961 158.518 205.013 157.314 202.497 154.204C200.441 151.661 199.549 148.158 199.413 144.709C199.319 142.207 199.819 133.43 203.755 137.501C206.811 140.679 210.044 144.547 212.573 148.239Z" fill="#67302D"/>
<path d="M219.105 262.211C216.414 260.128 210.044 261.075 206.717 261.089C200.414 261.116 194.125 261.197 187.823 261.048C183.4 260.94 168.036 259.56 170.16 265.958C169.916 266.147 169.997 266.512 170.349 266.661C170.308 267.608 170.363 268.608 171.052 269.312C171.999 270.272 173.676 270.245 175.137 270.204C177.49 270.123 179.843 270.164 182.183 270.34C185.023 270.556 187.972 270.935 190.636 270.069C190.988 269.947 191.339 269.812 191.623 269.582C191.948 269.312 192.137 268.96 192.354 268.608C192.489 268.392 192.854 268.04 193.26 267.621C194.964 267.648 196.654 267.675 198.359 267.689C198.697 268.527 199.292 269.312 199.9 269.744C200.78 270.38 201.956 270.407 203.052 270.421C206.135 270.434 209.219 270.461 212.302 270.475C213.871 270.488 215.467 270.488 216.955 269.988C218.443 269.487 219.809 268.392 220.187 266.891C220.187 266.877 220.187 266.85 220.201 266.837C221.039 265.579 220.282 263.131 219.105 262.211Z" fill="#F0F0F0"/>
<path d="M164.425 259.615C164.493 257.883 164.669 255.976 165.697 254.84C166.603 253.839 167.928 253.772 169.132 253.812C169.551 253.826 169.997 253.867 170.349 254.164C170.633 254.408 170.822 254.786 170.971 255.178C171.756 257.302 171.445 259.777 171.296 262.117C171.093 265.335 171.242 268.581 171.269 271.814C171.282 273.166 171.201 274.681 170.403 275.574C169.713 276.344 168.699 276.372 167.766 276.358C167.049 276.345 166.319 276.331 165.656 275.979C164.736 275.465 164.466 274.6 164.574 273.45C164.709 272.003 164.452 270.394 164.398 268.933C164.304 265.836 164.304 262.725 164.425 259.615Z" fill="#333333"/>
<path d="M165.453 264.483C166.724 264.24 168.036 264.416 169.308 264.659C169.862 264.767 170.66 264.74 171.12 265.119C171.282 265.254 171.499 265.43 171.688 265.308C171.823 265.214 171.837 265.024 171.85 264.848C172.013 262.157 171.945 259.601 171.783 256.923C171.755 256.544 171.728 256.166 171.634 255.8C171.485 255.246 171.187 254.759 170.89 254.286C170.66 253.921 170.43 253.555 170.092 253.312C169.7 253.028 169.226 252.96 168.78 252.92C167.955 252.852 167.117 252.893 166.332 253.163C165.548 253.434 164.804 253.961 164.344 254.746C163.884 255.516 163.722 256.463 163.614 257.383C163.411 259.1 163.357 260.845 163.465 262.563C163.492 262.996 163.519 263.415 163.56 263.848C163.587 264.105 163.56 264.862 163.735 265.051C163.979 265.308 164.236 264.943 164.466 264.821C164.777 264.646 165.115 264.551 165.453 264.483Z" fill="#E8E8E8"/>
<path d="M227.45 264.659C227.49 264.673 227.531 264.7 227.558 264.74C227.598 264.794 227.598 264.875 227.598 264.957C227.598 265.416 227.612 265.863 227.598 266.323C227.598 266.39 227.598 266.458 227.571 266.512C227.544 266.607 227.463 266.661 227.382 266.688C227.301 266.715 227.22 266.701 227.125 266.701C227.098 266.701 227.057 266.688 227.03 266.661C227.017 266.634 227.017 266.607 227.017 266.58C227.003 265.998 227.003 265.416 227.003 264.848C227.003 264.781 227.003 264.7 227.044 264.646C227.111 264.564 227.368 264.632 227.45 264.659Z" fill="#333333"/>
<path d="M227.22 262.901C227.247 263.171 227.26 263.442 227.26 263.726C227.274 265.187 227.26 266.647 227.193 268.094C227.179 268.419 227.152 268.784 226.936 268.987C226.774 269.149 226.557 269.176 226.354 269.203C226.273 269.217 226.165 269.217 226.111 269.122C226.097 269.082 226.084 269.041 226.084 269.001C225.962 267.594 225.962 266.174 226.043 264.767C226.07 264.294 226.016 263.266 226.26 262.874C226.449 262.59 227.166 262.455 227.22 262.901Z" fill="#C9C9C9"/>
<path d="M226.098 259.615C226.03 257.883 225.854 255.976 224.826 254.84C223.92 253.839 222.595 253.772 221.391 253.812C220.972 253.826 220.525 253.867 220.174 254.164C219.89 254.408 219.7 254.786 219.552 255.178C218.767 257.302 219.078 259.777 219.227 262.117C219.43 265.335 219.281 268.581 219.254 271.814C219.241 273.166 219.322 274.681 220.12 275.574C220.809 276.344 221.824 276.372 222.757 276.358C223.474 276.345 224.204 276.331 224.867 275.979C225.786 275.465 226.057 274.6 225.949 273.45C225.814 272.003 226.07 270.394 226.125 268.933C226.219 265.836 226.219 262.725 226.098 259.615Z" fill="#333333"/>
<path d="M225.07 264.483C223.798 264.24 222.486 264.416 221.215 264.659C220.661 264.767 219.863 264.74 219.403 265.119C219.24 265.254 219.024 265.43 218.835 265.308C218.699 265.214 218.686 265.024 218.672 264.848C218.51 262.157 218.578 259.601 218.74 256.923C218.767 256.544 218.794 256.166 218.889 255.8C219.038 255.246 219.335 254.759 219.633 254.286C219.863 253.921 220.093 253.555 220.431 253.312C220.823 253.028 221.296 252.96 221.742 252.92C222.567 252.852 223.406 252.893 224.19 253.163C224.975 253.434 225.719 253.961 226.179 254.746C226.638 255.516 226.801 256.463 226.909 257.383C227.112 259.1 227.166 260.845 227.058 262.563C227.031 262.996 227.004 263.415 226.963 263.848C226.936 264.105 226.963 264.862 226.787 265.051C226.544 265.308 226.287 264.943 226.057 264.821C225.746 264.646 225.408 264.551 225.07 264.483Z" fill="#E8E8E8"/>
<path d="M175.961 264.186C176.286 264.348 176.651 264.389 177.016 264.416C181.845 264.781 186.686 264.023 191.528 263.956C192.029 263.942 192.556 263.942 193.002 263.712C193.449 263.482 193.773 262.928 193.584 262.468C193.381 261.981 192.772 261.832 192.231 261.778C191.163 261.67 190.081 261.643 189.013 261.616C186.024 261.548 183.035 261.481 180.046 261.575C178.923 261.616 177.084 261.386 176.097 262.049C175.407 262.509 175.069 263.726 175.961 264.186Z" fill="#333333"/>
<path d="M209.286 262.171C211.112 262.049 212.952 261.819 214.737 262.157C215.454 262.292 216.279 262.671 216.319 263.401C216.346 263.902 215.954 264.348 215.481 264.524C215.021 264.713 214.507 264.7 214.007 264.673C210.409 264.551 206.798 264.429 203.2 264.308C202.457 264.281 201.699 264.253 200.955 264.172C200.306 264.105 199.129 263.74 199.522 262.833C199.914 261.941 201.388 262.211 202.118 262.238C204.512 262.306 206.906 262.319 209.286 262.171Z" fill="#333333"/>
<path d="M178.856 257.559C179.167 256.964 179.546 256.369 180.1 256.03C180.736 255.638 182.251 255.787 182.981 255.814C183.86 255.855 184.807 255.949 185.429 256.625C186.024 257.275 186.146 258.262 186.227 259.168C186.322 260.196 186.416 261.237 186.511 262.265C186.525 262.387 186.538 262.509 186.497 262.617C186.416 262.847 186.159 262.928 185.943 262.969C183.874 263.401 181.737 263.442 179.668 263.077C176.976 262.63 177.991 259.182 178.856 257.559Z" fill="#262626"/>
<path d="M205.58 258.505C205.783 257.275 206.283 255.936 207.42 255.408C207.825 255.219 208.272 255.151 208.718 255.124C209.949 255.07 211.247 255.354 212.207 256.139C213.113 256.882 213.641 257.991 213.898 259.141C214.155 260.277 214.141 261.467 214.141 262.63C214.141 262.698 214.141 262.779 214.087 262.833C214.06 262.874 214.006 262.887 213.952 262.901C212.288 263.428 210.517 263.591 208.786 263.401C207.906 263.307 207.041 263.104 206.202 262.82C205.553 262.603 205.35 262.414 205.337 261.711C205.337 260.656 205.404 259.56 205.58 258.505Z" fill="#262626"/>
<path d="M185.456 251.987C185.753 253.853 185.848 255.733 185.767 257.626C184.549 258.019 183.251 258.059 181.98 258.1C181.128 258.127 180.235 258.14 179.451 257.816C179.383 257.789 179.302 257.748 179.261 257.68C179.221 257.626 179.221 257.545 179.221 257.478C179.18 256.45 179.126 255.422 179.085 254.394C179.058 253.866 179.031 253.326 179.018 252.798C178.991 252.325 178.856 252.041 179.356 251.987C179.816 251.946 180.397 252.135 180.871 252.176C181.371 252.216 181.885 252.244 182.385 252.244C183.4 252.23 184.428 252.149 185.456 251.987Z" fill="#262626"/>
<path d="M206.649 255.922C206.676 256.085 206.717 256.274 206.852 256.369C206.933 256.436 207.041 256.45 207.15 256.463C209.165 256.747 211.248 256.626 213.168 257.275C213.384 255.557 213.371 253.812 213.114 252.108C211.45 252.081 209.787 252.108 208.123 252.19C207.65 252.217 207.177 252.244 206.703 252.325C206.095 252.446 206.095 252.487 206.189 253.096C206.338 254.042 206.487 254.989 206.649 255.922Z" fill="#262626"/>
<path d="M190.662 147.062C190.595 151.039 190.527 155.028 190.595 159.005C190.649 162.048 190.784 165.091 190.689 168.147C190.568 172.353 190.013 176.546 189.066 180.644C188.958 181.104 188.837 181.604 188.498 181.942C188.052 182.416 187.349 182.51 186.7 182.578C183.657 182.903 180.424 183.187 177.692 181.821C177.503 181.726 177.3 181.604 177.205 181.429C177.111 181.253 177.111 181.05 177.124 180.86C177.192 180.049 177.516 179.292 177.719 178.507C178.206 176.627 177.963 174.639 178.166 172.705C178.328 171.217 178.761 169.77 179.153 168.323C181.33 160.438 182.683 152.337 183.197 144.168C183.278 142.897 183.332 141.598 183.711 140.381C184.076 139.164 184.806 137.987 185.915 137.365C186.646 136.946 187.457 136.148 188.296 136.08C189.012 136.013 190.446 135.729 190.798 136.432C191.149 137.149 190.811 139.597 190.798 140.408C190.744 142.613 190.703 144.831 190.662 147.062Z" fill="#333333"/>
<path d="M196.641 140.773C197.006 148.144 197.371 155.502 197.723 162.873C197.98 168.08 198.237 173.3 197.993 178.494C197.966 179.008 197.953 179.562 198.223 179.995C198.588 180.563 199.332 180.739 200.008 180.82C203.281 181.253 206.635 180.969 209.787 179.995C210.314 179.833 210.882 179.616 211.166 179.143C211.396 178.751 211.396 178.277 211.383 177.831C211.072 166.89 207.285 156.394 205.215 145.656C204.647 142.707 204.201 139.705 203.241 136.865C203.146 136.581 203.038 136.297 202.808 136.107C202.551 135.905 202.199 135.891 201.875 135.877C200.373 135.837 198.886 135.796 197.385 135.756C195.64 135.715 196.587 139.678 196.641 140.773Z" fill="#333333"/>
<path d="M188.81 171.474C188.891 171.474 188.973 171.474 189.04 171.42C189.108 171.366 189.108 171.271 189.108 171.177C189.108 170.784 189.094 170.406 189.094 170.014C186.335 170.311 183.549 169.324 180.777 169.594C180.723 169.594 180.668 169.608 180.628 169.648C180.574 169.689 180.574 169.77 180.574 169.838C180.574 170.527 180.506 170.893 181.196 171.095C181.953 171.312 182.941 171.231 183.725 171.285C185.416 171.38 187.12 171.474 188.81 171.474Z" fill="#1F1F1F"/>
<path d="M188.512 164.103C188.566 164.103 188.634 164.117 188.688 164.076C188.728 164.036 188.742 163.968 188.742 163.9C188.742 163.657 188.742 163.413 188.742 163.17C188.742 163.102 188.742 163.035 188.701 162.981C188.634 162.886 188.485 162.886 188.377 162.886C187.187 162.981 185.983 163.008 184.793 162.994C183.846 162.981 182.372 162.602 181.493 162.886C181.736 163.819 183.454 163.657 184.157 163.725C185.591 163.846 187.051 163.968 188.512 164.103Z" fill="#1F1F1F"/>
<path d="M208.096 169.351C208.204 169.351 208.312 169.351 208.38 169.432C208.434 169.486 208.434 169.567 208.448 169.648C208.461 169.865 208.475 170.081 208.502 170.297C208.502 170.338 208.502 170.392 208.475 170.433C208.448 170.473 208.38 170.487 208.326 170.487C205.756 170.649 203.187 170.811 200.617 170.974C200.549 170.974 200.468 170.974 200.428 170.933C200.374 170.893 200.36 170.825 200.36 170.757C200.225 169.567 202.862 169.729 203.714 169.635C205.161 169.472 206.635 169.378 208.096 169.351Z" fill="#1F1F1F"/>
<path d="M207.027 163.481C207.149 163.481 207.285 163.481 207.352 163.4C207.42 163.319 207.42 163.197 207.42 163.103C207.42 162.927 207.406 162.737 207.406 162.562C207.406 162.494 207.406 162.44 207.366 162.386C207.311 162.332 207.217 162.332 207.136 162.332C204.796 162.453 202.443 162.575 200.103 162.697C200.049 162.697 199.995 162.71 199.968 162.737C199.941 162.764 199.927 162.819 199.927 162.859C199.805 164.32 201.807 163.603 202.74 163.549C204.16 163.468 205.594 163.441 207.027 163.481Z" fill="#1F1F1F"/>
<path d="M167.874 184.444C167.86 184.539 167.833 184.634 167.86 184.715C167.887 184.81 167.968 184.864 168.049 184.918C168.59 185.296 169.267 185.432 169.916 185.526C170.43 185.594 170.944 185.648 171.458 185.662C171.552 185.662 171.647 185.662 171.728 185.608C171.796 185.553 171.836 185.459 171.85 185.378C172.012 184.81 172.12 184.228 172.202 183.646C172.215 183.498 172.242 183.349 172.161 183.227C172.107 183.133 172.012 183.065 171.904 183.024C171.038 182.565 170.024 182.537 169.091 182.294C168.956 182.253 168.536 182.051 168.428 182.105C168.252 182.186 168.239 182.578 168.212 182.74C168.117 183.308 167.995 183.876 167.874 184.444Z" fill="#67302D"/>
<path d="M214.101 185.121C214.088 185.31 214.074 185.526 214.182 185.689C214.277 185.824 214.426 185.892 214.574 185.959C215.521 186.324 216.563 186.338 217.577 186.338C217.834 186.338 218.118 186.324 218.294 186.135C218.415 186 218.442 185.797 218.469 185.608C218.497 185.269 218.51 184.918 218.524 184.58C218.524 184.39 218.524 184.174 218.429 184.012C218.307 183.768 218.037 183.646 217.793 183.552C216.941 183.227 216.035 183.078 215.129 183.119C214.953 183.133 214.601 183.092 214.439 183.187C214.263 183.281 214.29 183.389 214.263 183.606C214.182 184.093 214.142 184.607 214.101 185.121Z" fill="#67302D"/>
<path d="M214.358 188.705C214.331 188.907 214.304 189.124 214.371 189.327C214.425 189.53 214.601 189.719 214.818 189.719C214.885 189.719 214.967 189.705 215.034 189.746C215.088 189.787 215.115 189.854 215.129 189.922C215.251 190.557 214.98 191.247 215.223 191.856C215.494 192.519 216.305 192.803 217.009 192.708C217.293 192.667 217.577 192.586 217.807 192.424C218.429 191.978 218.496 191.098 218.469 190.328C218.415 188.962 218.226 187.596 217.901 186.27C217.874 186.162 217.847 186.054 217.78 185.959C217.712 185.864 217.59 185.81 217.482 185.77C216.725 185.472 215.873 185.499 215.061 185.54C214.547 185.567 214.655 186.392 214.615 186.784C214.52 187.433 214.439 188.069 214.358 188.705Z" fill="#B8A293"/>
<path d="M167.495 187.42C167.238 188.285 167.102 189.205 167.13 190.111C167.143 190.882 167.319 191.748 167.968 192.167C168.374 192.424 168.901 192.451 169.334 192.248C169.767 192.045 170.078 191.626 170.173 191.153C170.213 190.977 170.213 190.801 170.267 190.639C170.321 190.476 170.457 190.314 170.632 190.301C170.7 190.287 170.781 190.314 170.849 190.301C171.025 190.274 171.133 190.084 171.2 189.908C171.471 189.205 171.498 188.434 171.512 187.677C171.525 187.176 171.539 186.69 171.552 186.189C171.566 185.851 171.566 185.472 171.349 185.215C171.16 184.972 170.835 184.891 170.524 184.837C170.132 184.755 169.726 184.715 169.334 184.688C169.064 184.674 168.685 184.647 168.441 184.783C168.171 184.931 168.212 185.202 168.13 185.499C167.968 186.149 167.698 186.771 167.495 187.42Z" fill="#B8A293"/>
<path d="M118.796 276.336C118.755 276.16 118.62 276.025 118.498 275.903C117.2 274.727 115.374 274.334 113.629 274.077C106.745 273.063 99.7393 273.388 92.7742 273.347L83.645 273.144C81.427 273.225 79.2225 273.834 77.2884 274.929C77.072 275.051 76.8556 275.2 76.761 275.43C76.5716 275.944 77.1937 276.363 77.7077 276.552C81.4675 277.864 85.552 277.851 89.5418 277.837C98.9143 277.824 108.314 277.986 117.66 277.188C118.201 277.134 118.917 276.863 118.796 276.336Z" fill="url(#paint4_linear)"/>
<path opacity="0.22" d="M118.796 276.336C118.755 276.16 118.62 276.025 118.498 275.903C117.2 274.727 115.374 274.334 113.629 274.077C106.745 273.063 99.7393 273.388 92.7742 273.347L83.645 273.144C81.427 273.225 79.2225 273.834 77.2884 274.929C77.072 275.051 76.8556 275.2 76.761 275.43C76.5716 275.944 77.1937 276.363 77.7077 276.552C81.4675 277.864 85.552 277.851 89.5418 277.837C98.9143 277.824 108.314 277.986 117.66 277.188C118.201 277.134 118.917 276.863 118.796 276.336Z" fill="url(#paint5_linear)"/>
<path d="M112.439 179.297C112.886 179.269 113.359 179.188 113.684 178.877C114.049 178.512 114.089 177.944 114.103 177.417C114.103 177.335 114.103 177.241 114.049 177.173C113.995 177.092 113.886 177.065 113.792 177.038C112.615 176.781 111.438 176.537 110.275 176.281C110.1 176.24 109.924 176.213 109.761 176.253C109.504 176.335 109.342 176.592 109.247 176.835C108.99 177.417 108.544 178.823 109.396 179.134C110.248 179.459 111.506 179.364 112.439 179.297Z" fill="#C89A81"/>
<path d="M94.9248 156.994C95.3982 156.67 95.9392 156.399 96.5072 156.386C97.4134 156.386 98.1572 157.048 98.7658 157.711C100.619 159.713 102.12 162.08 102.823 164.703C103.08 165.677 103.229 166.678 103.499 167.652C103.811 168.747 104.284 169.789 104.744 170.83C105.244 171.925 105.745 173.048 106.529 173.968C107.313 174.887 108.422 175.591 109.626 175.618C109.613 176.957 109.261 178.282 108.612 179.445C108.558 179.54 108.504 179.635 108.409 179.675C108.301 179.716 108.179 179.689 108.071 179.648C106.975 179.269 105.988 178.607 105.082 177.89C99.7125 173.697 95.2765 167.3 92.6933 161.011C92.0035 159.266 93.5453 157.927 94.9248 156.994Z" fill="#F2F2F2"/>
<path d="M83.5776 148.433C84.2132 149.988 85.0382 151.49 86.2149 152.693C87.3915 153.897 88.9604 154.763 90.6375 154.857C93.2477 155.019 95.7092 153.234 96.8994 150.908C97.4268 149.88 97.7379 148.771 97.9949 147.649C98.617 144.903 98.8875 142.09 98.9281 139.277C98.9551 137.302 98.8334 135.179 97.6567 133.596C96.5748 132.136 94.776 131.378 93.0043 131.067C90.8809 130.689 88.6358 130.878 86.7018 131.825C80.1829 134.962 81.2784 142.861 83.5776 148.433Z" fill="#C89A81"/>
<path d="M79.5069 270.412C79.6286 270.087 79.7639 269.763 79.8856 269.438C79.8044 269.411 79.7233 269.398 79.6421 269.371C79.6421 266.274 79.6421 263.176 79.6421 260.079C79.6421 256.022 79.8315 252.113 80.1966 248.096C81.2516 236.208 79.8721 224.198 80.8458 212.08C81.0757 209.267 81.3327 206.427 82.0089 203.681C82.9016 200.097 82.9421 199.624 86.134 198.988C91.0975 198.015 97.968 197.933 102.85 199.313C102.891 222.427 101.593 248.042 99.591 270.994C99.4422 270.994 99.2935 270.994 99.1582 270.994C100.348 272.008 101.701 272.847 103.148 273.442C103.5 273.59 103.878 273.726 104.162 273.996C104.744 274.564 104.649 275.646 103.987 276.106C103.364 276.539 102.526 276.39 101.796 276.228C99.6992 275.768 97.6029 275.308 95.5066 274.848C95.1279 274.767 94.7086 274.659 94.4516 274.375C94.127 274.023 94.1 273.509 94.1 273.036C94.0865 272.346 94.0865 271.656 94.0729 270.98C94.0053 270.98 93.9377 270.98 93.8836 270.98C92.3147 258.51 93.302 230.636 92.9233 218.139C92.2201 223.955 90.3537 243.349 88.9606 250.598C88.3114 253.953 87.5541 257.226 87.0131 260.607C86.7291 262.338 86.4315 264.056 86.0934 265.76C85.8094 267.234 85.2819 268.762 85.3225 270.29C85.2143 270.304 85.1196 270.304 85.0114 270.317C85.7418 271.737 86.6885 273.036 87.8246 274.145C88.095 274.415 88.3926 274.686 88.5549 275.038C88.8795 275.781 88.3791 276.755 87.5946 276.931C86.8643 277.093 86.134 276.647 85.5118 276.228C83.7401 275.01 81.9684 273.807 80.1966 272.59C79.8721 272.373 79.5339 272.13 79.3852 271.751C79.1688 271.345 79.3446 270.858 79.5069 270.412Z" fill="#272826"/>
<path d="M93.6667 156.994C94.2753 156.629 94.8975 156.169 95.6007 156.21C96.1688 156.237 96.6827 156.575 97.0479 157.008C97.6971 157.765 97.9946 158.766 98.238 159.726C99.9963 166.421 103.932 172.615 104.378 179.526C104.486 181.149 104.554 182.786 104.216 184.382C103.648 186.992 102.011 189.318 101.782 191.983C101.66 193.376 101.822 195.039 100.713 195.905C100.186 196.31 99.4958 196.419 98.8331 196.5C96.4934 196.811 94.1401 197.135 91.8003 197.447C90.1097 197.676 88.2974 197.879 86.7827 197.122C84.8892 196.175 83.9966 193.998 83.3609 191.983C80.9671 184.368 80.1556 176.348 79.3576 168.409C78.9925 164.812 78.2892 156.616 83.5908 156.142C85.5113 155.98 87.4589 157.008 89.2982 157.386C91.7462 157.9 91.5163 158.306 93.6667 156.994Z" fill="#EDEDED"/>
<path d="M96.5477 186.546C99.2256 186.452 102.296 186.316 104.189 187.818C104.96 188.426 105.42 189.238 105.785 190.036C107.651 194.08 107.8 198.475 107.949 202.776C108.179 209.795 108.395 216.828 108.084 223.834C108.071 224.118 108.044 224.429 107.827 224.659C107.53 224.983 106.975 225.065 106.461 225.119C99.185 225.89 91.814 226.092 84.4837 225.7C81.7247 225.551 78.5058 225.078 77.2886 223.144C76.7476 222.292 76.7205 221.291 76.7611 220.344C76.9234 216.165 78.0595 212.054 78.5734 207.902C79.2091 202.871 78.9386 197.785 79.6419 192.754C80.1017 189.508 80.6292 185.924 85.782 186.181C89.3931 186.343 92.9095 186.682 96.5477 186.546Z" fill="#E6E6E6"/>
<path d="M85.6335 186.397C85.5929 186.181 85.4171 186.059 85.2007 186.005C85.0655 186.005 84.9167 186.018 84.7815 186.045C84.6462 186.113 84.5516 186.221 84.5516 186.384C84.4028 199.273 81.6302 212.026 79.9261 224.821C79.9126 224.875 79.9261 224.929 79.9261 224.969C80.3183 225.118 80.6835 225.28 81.1028 225.362C81.3733 225.416 81.6437 225.443 81.9142 225.497C82.1577 225.348 82.32 225.118 82.3335 224.807C82.7392 211.972 87.7569 199.313 85.6335 186.397Z" fill="#4F5459"/>
<path d="M90.543 186.383C90.5294 186.356 90.5159 186.343 90.5159 186.329C90.1372 186.343 89.7585 186.356 89.3798 186.356C89.3663 186.356 89.3528 186.356 89.3393 186.356C89.3122 186.41 89.2987 186.465 89.2987 186.532C89.2175 189.643 89.6503 192.754 89.3528 195.878C89.0147 199.381 87.9057 202.816 87.1889 206.278C85.8905 212.581 85.1601 218.91 85.0249 225.28C85.0249 225.497 85.0925 225.673 85.2007 225.821C85.9311 225.848 86.6614 225.902 87.3917 225.93C87.5675 225.767 87.6893 225.551 87.7163 225.28C88.095 218.302 88.9471 211.323 90.4212 204.425C91.7196 198.366 92.3147 192.415 90.543 186.383Z" fill="#4F5459"/>
<path d="M95.5604 186.505C95.1411 186.587 94.6948 186.573 94.262 186.56C93.7616 192.957 93.4776 199.327 92.7878 205.738C92.0981 212.283 91.503 218.856 91.6653 225.429C91.6653 225.619 91.7329 225.781 91.8276 225.916C92.5308 225.741 93.4505 225.862 94.1268 225.876C94.2079 225.754 94.2485 225.605 94.2485 225.429C94.2891 218.681 94.8436 211.959 95.5063 205.237C96.1284 199.07 97.0616 192.619 95.5604 186.505Z" fill="#4F5459"/>
<path d="M100.078 186.383H98.6037C99.2935 192.97 98.8337 199.57 98.482 206.156C98.3062 209.443 98.0763 212.743 97.8328 216.029C97.6029 219.194 96.832 222.562 97.5894 225.686C97.6029 225.754 97.63 225.821 97.657 225.875C98.4414 225.727 99.2529 225.713 100.051 225.645C100.105 225.497 100.132 225.334 100.091 225.145C99.3341 221.926 100.335 218.275 100.592 215.029C100.862 211.58 101.065 208.117 101.241 204.655C101.525 198.556 101.809 192.388 100.078 186.383Z" fill="#4F5459"/>
<path d="M105.92 203.952C105.853 198.231 106.204 192.389 103.378 187.033C103.053 186.911 102.715 186.843 102.35 186.816C102.296 186.816 102.255 186.803 102.214 186.789C104.622 192.618 103.283 199.421 103.269 205.453C103.256 212.053 103.405 218.68 103.905 225.267C103.905 225.335 103.932 225.402 103.946 225.47C104.527 225.159 105.406 225.172 106.164 225.172C106.191 218.085 106.015 211.012 105.92 203.952Z" fill="#4F5459"/>
<path d="M117.065 173.67C115.158 176.308 112.831 178.593 110.519 180.865C109.883 181.488 109.247 182.11 108.625 182.732C108.436 182.921 108.247 183.138 108.355 183.489C108.409 183.665 108.531 183.841 108.666 184.017C110.059 185.897 111.952 187.547 113.819 189.116C114.454 189.643 115.117 190.184 115.82 190.454C116.51 190.725 117.132 190.684 117.606 190.481C118.079 190.279 118.417 189.941 118.755 189.602C121.149 187.154 123.435 184.598 125.666 182.002C126.343 181.217 127.005 180.419 127.844 179.784C128.263 179.459 128.736 179.161 128.98 178.674C129.223 178.201 129.21 177.484 128.709 176.795C128.439 176.416 128.047 176.078 127.668 175.767C126.221 174.536 124.774 173.319 123.327 172.088C122.65 171.52 121.947 170.925 121.203 170.519C120.284 170.019 119.932 169.992 119.513 170.451C118.579 171.425 117.849 172.575 117.065 173.67Z" fill="#EDEDED"/>
<path d="M128.263 178.363C128.29 177.985 127.803 177.444 127.371 177.011C125.572 175.239 123.665 173.549 121.677 171.98C121.203 171.615 120.662 171.222 120.175 171.141C119.702 171.06 119.607 171.344 119.432 171.588C118.945 172.25 118.512 172.954 118.039 173.63C116.943 175.172 115.631 176.538 114.333 177.89C113.562 178.688 112.791 179.486 112.02 180.284C111.668 180.649 111.33 181.001 110.897 181.285C110.424 181.609 109.843 181.974 110.221 182.759C110.424 183.192 110.884 183.624 111.317 184.017C112.466 185.072 113.616 186.127 114.766 187.168C115.158 187.52 115.55 187.885 115.983 188.169C116.713 188.642 117.498 188.845 117.998 188.696C118.295 188.602 118.485 188.399 118.674 188.196C121.704 184.936 124.841 181.772 128.074 178.688C128.155 178.607 128.25 178.512 128.263 178.363Z" fill="white"/>
<path d="M94.6133 165.677C95.0866 162.864 95.2895 159.997 95.2083 157.143C95.2083 157.048 95.1948 156.953 95.1272 156.899C95.0596 156.859 94.9784 156.859 94.8973 156.872C93.7341 157.075 92.2735 157.102 91.178 157.522C90.5964 157.751 90.7587 157.833 91.1104 158.347C91.435 158.806 91.746 159.266 92.0436 159.74C92.6116 160.659 93.112 161.619 93.5448 162.607C93.9235 163.459 94.6133 164.744 94.6133 165.677Z" fill="#C89A81"/>
<path d="M87.7428 158.847C87.6617 158.901 87.567 158.996 87.5941 159.09C87.6076 159.158 87.6887 159.199 87.7564 159.226C88.1892 159.429 88.6219 159.645 89.0412 159.848C89.19 159.915 89.3523 160.01 89.4064 160.159C89.501 160.429 89.2306 160.673 89.0142 160.862C88.649 161.187 88.3785 161.633 88.2568 162.106C88.2432 162.174 88.2297 162.255 88.2568 162.336C88.2838 162.404 88.365 162.458 88.4326 162.499C90.5965 163.783 92.7605 165.068 94.9244 166.353C94.9921 165.366 94.5998 164.419 94.2076 163.527C93.7207 162.417 93.2068 161.336 92.6658 160.254C92.233 159.374 91.692 158.347 90.8129 157.846C89.9068 157.332 88.5002 158.32 87.7428 158.847Z" fill="#D6D6D6"/>
<path d="M97.4267 157.156C97.7108 157.183 98.0624 157.319 98.0489 157.589C98.0354 157.711 97.9542 157.806 97.8731 157.9C97.5214 158.306 97.1698 158.698 96.8181 159.104C97.1968 159.266 97.562 159.428 97.9407 159.591C98.0624 159.645 98.1976 159.713 98.2247 159.848C98.2517 159.969 98.1706 160.078 98.0895 160.186C96.9669 161.647 96.0337 163.269 95.3439 164.974C95.114 165.528 94.8976 166.123 94.4648 166.542C94.7353 164.351 94.8841 162.147 94.9247 159.929C94.9382 159.28 94.6001 157.684 95.0735 157.17C95.5603 156.669 96.8587 157.089 97.4267 157.156Z" fill="#D6D6D6"/>
<path d="M114.535 176.064C114.643 176.091 114.684 176.213 114.711 176.307C114.765 176.578 114.819 176.862 114.711 177.119C114.643 177.281 114.522 177.416 114.4 177.552C114.102 177.863 113.791 178.16 113.399 178.377C113.02 178.593 112.561 178.715 112.114 178.661C112.074 178.661 112.033 178.647 112.006 178.62C111.979 178.593 111.979 178.566 111.965 178.539C111.803 177.944 111.979 177.281 112.574 176.943C112.804 176.821 113.088 176.767 113.318 176.659C113.588 176.537 114.238 176.01 114.535 176.064Z" fill="#C89A81"/>
<path d="M108.571 175.888C108.733 175.469 108.963 174.996 109.41 174.874C109.924 174.725 110.465 175.199 110.586 175.726C110.708 176.254 110.559 176.794 110.41 177.322C110.221 177.944 110.045 178.553 109.856 179.175C109.694 179.729 109.464 180.351 108.936 180.568C108.693 180.676 108.409 180.676 108.138 180.649C107.962 180.636 107.8 180.608 107.651 180.541C107.056 180.23 107.651 178.837 107.773 178.336C107.99 177.498 108.26 176.686 108.571 175.888Z" fill="#D6D6D6"/>
<path d="M101.024 138.303C101.078 138.614 101.105 138.939 100.957 139.209C100.74 139.629 100.213 139.764 99.7394 139.764C98.671 139.764 97.6025 139.304 96.5611 139.52C96.0878 139.615 95.655 139.845 95.1951 139.98C93.4505 140.508 91.5029 139.777 89.7447 140.291C87.689 140.9 86.4041 143.388 87.1209 145.417C86.8099 144.876 86.3906 144.335 85.7955 144.146C85.2004 143.956 84.4025 144.335 84.3889 144.957C84.3754 145.633 85.1599 146.026 85.5385 146.594C86.0119 147.311 85.782 148.244 85.7144 149.096C85.5926 150.611 86.0525 152.166 86.9857 153.37C85.9308 152.369 84.5648 151.76 83.4422 150.854C81.6705 149.407 80.5885 147.27 79.8447 145.106C78.7356 141.847 78.3164 138.181 79.6418 135.003C80.1016 133.908 80.7508 132.893 81.4676 131.947C81.9139 131.365 82.4008 130.783 83.023 130.391C84.0779 129.715 85.4033 129.634 86.6611 129.58C88.6357 129.485 90.6238 129.39 92.5849 129.715C97.1292 130.459 100.307 133.732 101.024 138.303Z" fill="#441A19"/>
<path d="M76.9369 131.392C75.2869 131.378 73.6775 131.973 72.2709 132.853C68.2947 135.341 65.9684 140.237 66.55 144.89C66.8746 147.54 68.0512 150.015 68.9168 152.545C69.7824 155.074 70.3369 157.887 69.4172 160.402C69.0926 161.308 68.5787 162.12 68.0647 162.931C66.6717 165.095 65.0893 167.286 62.7766 168.422C61.5729 169.018 60.0581 169.275 58.9221 168.558C58.5028 169.761 59.5442 170.992 60.6397 171.641C63.9262 173.616 68.5246 173.061 71.2566 170.37C72.5279 169.126 73.3799 167.53 74.1508 165.92C75.3951 163.324 76.4635 160.578 76.5176 157.697C76.5447 155.953 76.1931 154.235 75.9361 152.504C75.6791 150.813 75.5168 149.109 75.4357 147.392C75.3951 146.364 75.3816 145.295 75.8144 144.376C76.9099 142.022 80.2504 141.495 81.5082 139.223C81.8869 138.533 82.0357 137.749 82.1845 136.978C82.7796 133.772 80.0882 131.405 76.9369 131.392Z" fill="#441A19"/>
<path d="M112.345 186.126C112.236 186.207 112.182 186.37 112.196 186.505C112.209 186.694 112.331 186.87 112.507 186.951C112.683 187.032 112.886 187.019 113.048 186.911C113.602 186.532 112.831 185.747 112.345 186.126Z" fill="white"/>
<path d="M111.844 185.748C111.113 184.963 109.72 185.829 108.787 185.342C108.584 185.234 108.422 185.085 108.233 184.95C107.678 184.584 106.894 184.584 106.339 184.95C105.988 185.18 105.704 185.531 105.311 185.68C105.041 185.775 104.73 185.761 104.446 185.734C98.7384 185.342 93.031 184.936 87.3236 184.544C86.3904 184.476 85.4437 184.422 84.551 184.693C83.6584 184.963 82.8334 185.639 82.6711 186.559L82.2654 187.195C87.3236 188.317 92.4359 189.372 97.6023 189.602C100.754 189.737 103.959 189.589 107.029 190.305C108.3 190.603 109.72 191.036 110.829 190.36C111.938 189.697 112.222 188.223 112.195 186.938C112.182 186.505 112.128 186.059 111.844 185.748Z" fill="#C89A81"/>
<path d="M79.5607 157.684C76.5853 160.389 76.1119 164.798 75.341 168.747C74.4754 173.129 73.0283 177.389 72.1221 181.758C71.8516 183.056 71.6488 184.49 72.2574 185.667C73.15 187.371 75.314 187.83 77.2074 188.114C80.0341 188.534 81.0349 188.696 83.8615 189.115C88.771 189.859 89.0821 189.467 94.6407 190.103C95.06 190.157 95.4927 190.021 95.8579 189.805C96.3448 189.535 96.6423 189.034 96.8858 188.534C97.4403 187.411 97.819 186.194 98.0083 184.95C98.1301 184.179 98.1436 183.313 97.6432 182.718C97.2374 182.245 96.6018 182.082 95.9932 181.934C90.1099 180.473 88.4193 181.92 82.5361 180.46C82.0357 180.338 81.5218 180.216 81.0755 179.959C79.5201 179.121 81.9005 175.253 82.2656 173.521C82.6308 171.79 82.4415 169.545 83.3476 168.03C84.1456 166.691 84.8488 165.312 85.4574 163.892C86.039 162.539 86.5529 161.052 86.296 159.604C85.7144 156.304 81.8058 155.642 79.5607 157.684Z" fill="#F2F2F2"/>
<path d="M93.8423 186.762C94.221 185.788 94.6809 184.855 95.0596 183.881C95.2489 183.408 95.4112 182.921 95.56 182.434C95.6817 182.028 95.8305 181.568 96.2227 181.406C96.4932 181.298 96.8178 181.366 97.0883 181.46C97.6022 181.636 98.0891 181.866 98.5489 182.15C98.7112 182.245 98.86 182.366 98.9547 182.529C99.0223 182.65 99.0358 182.799 99.0358 182.934C99.0764 183.8 98.8194 184.639 98.5354 185.464C97.9809 187.059 97.3182 188.601 96.5473 190.102C96.4255 190.346 96.2903 190.589 96.0874 190.752C95.4382 191.306 94.0858 191.13 93.3554 190.806C92.4628 190.414 93.0309 189.305 93.2337 188.615C93.4095 187.993 93.6124 187.371 93.8423 186.762Z" fill="#D6D6D6"/>
<path d="M120.838 182.813C120.906 182.637 120.852 182.434 120.757 182.272C120.662 182.109 120.514 181.988 120.365 181.866C119.77 181.366 119.148 180.892 118.553 180.405C118.255 180.162 117.958 179.905 117.673 179.648C117.484 179.472 117.322 179.188 117.105 179.066C116.835 178.904 116.416 179.026 116.186 179.202C116.105 179.269 116.037 179.337 115.996 179.445C115.969 179.54 115.969 179.634 115.996 179.716C116.051 179.918 116.199 180.094 116.348 180.257C117.268 181.271 118.296 182.231 119.486 182.921C119.716 183.056 119.946 183.178 120.203 183.191C120.473 183.178 120.757 183.056 120.838 182.813Z" fill="#CBB190"/>
<path d="M116.673 178.471C116.537 178.58 116.51 178.782 116.564 178.945C116.618 179.107 116.74 179.229 116.875 179.337C116.916 179.364 116.943 179.391 116.957 179.432C116.984 179.513 116.916 179.607 116.889 179.689C116.848 179.878 117.051 180.04 117.254 180.081C117.443 180.121 117.673 180.121 117.822 180.243C117.944 180.351 117.984 180.527 118.025 180.676C118.079 180.838 118.147 181 118.309 181.055C118.485 181.122 118.701 181.001 118.877 181.068C119.012 181.109 119.093 181.244 119.148 181.379C119.202 181.514 119.242 181.65 119.323 181.758C119.459 181.934 119.716 182.001 119.932 181.947C119.973 181.934 120.013 181.92 120.054 181.947C120.067 181.961 120.081 181.974 120.094 181.988C120.175 182.123 120.148 182.326 120.297 182.394C120.392 182.448 120.5 182.407 120.608 182.434C120.771 182.488 120.865 182.718 121.041 182.705C121.122 182.691 121.19 182.623 121.23 182.556C121.325 182.339 121.217 182.082 121.055 181.934C120.879 181.771 120.662 181.69 120.446 181.596C120.013 181.406 119.607 181.149 119.35 180.771C119.229 180.581 119.134 180.365 118.999 180.203C118.647 179.783 118.012 179.689 117.673 179.269C117.484 179.039 117.092 178.106 116.673 178.471Z" fill="#82B68D"/>
<path d="M121.758 181.365C121.798 181.203 121.758 181.041 121.663 180.906C121.568 180.77 121.447 180.662 121.325 180.554C120.676 179.999 120.027 179.445 119.377 178.904C119.066 178.647 118.728 178.403 118.431 178.119C118.282 177.971 118.16 177.727 117.957 177.646C117.579 177.497 117.268 177.795 117.173 178.147C117.119 178.322 117.092 178.512 117.065 178.701C117.051 178.85 117.038 178.999 117.105 179.134C117.159 179.242 117.254 179.337 117.349 179.418C117.714 179.756 118.079 180.081 118.444 180.419C118.864 180.797 119.296 181.19 119.77 181.514C120.027 181.69 120.311 181.852 120.608 181.947C120.771 182.001 120.96 182.042 121.122 182.001C121.311 181.947 121.474 181.812 121.596 181.649C121.663 181.555 121.731 181.474 121.758 181.365Z" fill="#D9924E"/>
<path d="M122.34 181.352C122.448 181.136 122.516 180.892 122.448 180.662C122.408 180.527 122.326 180.405 122.232 180.297C122.042 180.081 121.799 179.905 121.569 179.743C120.933 179.283 120.311 178.796 119.689 178.309C119.392 178.066 119.08 177.822 118.796 177.565C118.621 177.416 118.499 177.187 118.296 177.078C118.039 176.957 117.566 176.943 117.485 177.295C117.457 177.443 117.525 177.592 117.633 177.7C117.742 177.809 117.863 177.876 117.985 177.971C118.012 177.998 118.039 178.012 118.053 178.052C118.093 178.133 118.039 178.241 117.971 178.296C117.904 178.363 117.823 178.417 117.782 178.498C117.701 178.661 117.823 178.85 117.971 178.958C118.12 179.066 118.323 179.121 118.512 179.107C118.648 179.093 118.81 179.066 118.918 179.161C119.026 179.269 118.999 179.445 118.999 179.594C119.013 179.864 119.175 180.121 119.405 180.27C119.635 180.419 119.919 180.473 120.189 180.487C120.23 180.487 120.284 180.487 120.311 180.514C120.392 180.554 120.392 180.662 120.419 180.743C120.46 180.946 120.609 181.136 120.798 181.23C120.987 181.325 121.231 181.325 121.42 181.23C121.38 181.298 121.407 181.379 121.447 181.433C121.488 181.487 121.555 181.514 121.623 181.555C121.799 181.636 122.002 181.717 122.164 181.623C122.245 181.528 122.299 181.433 122.34 181.352Z" fill="#82B68D"/>
<path d="M122.583 179.891C122.502 179.567 122.285 179.283 122.069 179.039C121.866 178.809 121.704 178.552 121.501 178.323C121.055 177.822 120.5 177.403 119.892 177.119C119.553 176.957 119.202 176.835 118.823 176.754C118.62 176.713 118.404 176.686 118.242 176.808C118.093 176.916 118.039 177.105 118.066 177.281C118.079 177.457 118.16 177.619 118.242 177.768C118.526 178.309 118.837 178.823 119.229 179.283C119.851 180.04 120.676 180.689 121.65 180.865C121.839 180.906 122.042 180.919 122.218 180.838C122.542 180.703 122.664 180.257 122.583 179.891Z" fill="#CBB190"/>
<path d="M125.059 174.158C124.91 174.023 124.734 173.928 124.599 173.766C124.572 173.738 124.558 173.711 124.518 173.698C124.504 173.684 124.477 173.684 124.463 173.684C124.436 173.684 124.409 173.684 124.396 173.684C124.342 173.698 124.342 173.752 124.382 173.793C124.518 173.968 124.734 174.077 124.856 174.266C124.896 174.32 124.923 174.374 124.977 174.388C125.018 174.388 125.059 174.374 125.086 174.347C125.113 174.334 125.126 174.307 125.126 174.279C125.126 174.225 125.099 174.185 125.059 174.158Z" fill="#9E9E9E"/>
<path d="M124.152 173.413C124.138 173.373 124.07 173.359 124.03 173.386C123.989 173.413 123.975 173.467 123.989 173.508C123.989 173.522 123.989 173.535 124.003 173.549C124.016 173.562 124.03 173.576 124.057 173.576C124.097 173.589 124.152 173.562 124.165 173.522C124.179 173.495 124.179 173.44 124.152 173.413Z" fill="#9E9E9E"/>
<path d="M117.308 183.367C117.322 183.381 117.335 183.394 117.335 183.421C117.335 183.448 117.322 183.462 117.295 183.475C117.119 183.611 116.943 183.759 116.754 183.895C116.7 183.935 116.659 183.976 116.591 183.976C116.524 183.976 116.456 183.922 116.402 183.881C116.064 183.597 115.726 183.3 115.401 183.016C115.171 182.813 114.847 182.623 114.847 182.272C114.847 182.028 114.996 181.798 115.239 181.758C115.591 181.704 115.996 182.177 116.24 182.38C116.605 182.691 116.957 183.029 117.308 183.367Z" fill="#9AA4AD"/>
<path d="M115.631 182.123C115.617 182.123 115.604 182.123 115.59 182.137C115.455 182.123 115.32 182.177 115.239 182.299C115.158 182.421 115.212 182.556 115.347 182.61C115.482 182.664 115.631 182.596 115.712 182.488C115.82 182.353 115.793 182.177 115.631 182.123ZM115.374 182.529C115.252 182.488 115.266 182.353 115.347 182.272C115.415 182.204 115.496 182.177 115.577 182.177C115.577 182.191 115.59 182.204 115.604 182.204C115.82 182.339 115.563 182.596 115.374 182.529Z" fill="#4F5459"/>
<path d="M115.834 182.908C115.847 182.867 115.847 182.813 115.847 182.772C115.847 182.759 115.834 182.691 115.82 182.651C115.874 182.664 115.915 182.691 115.969 182.678C116.01 182.678 116.05 182.651 116.064 182.61C116.104 182.515 116.01 182.421 115.928 182.38C115.915 182.38 115.901 182.38 115.901 182.38C115.888 182.38 115.874 182.38 115.874 182.394C115.766 182.515 115.644 182.624 115.563 182.759C115.536 182.799 115.604 182.853 115.644 182.813C115.672 182.772 115.712 182.732 115.739 182.691C115.753 182.772 115.739 182.84 115.726 182.921C115.712 182.975 115.78 183.016 115.82 182.975C115.82 182.975 115.82 182.975 115.82 182.962C115.834 182.948 115.834 182.921 115.834 182.908ZM115.834 182.556C115.861 182.515 115.888 182.488 115.915 182.448C115.942 182.461 115.969 182.488 115.983 182.515C115.956 182.569 115.928 182.596 115.888 182.569C115.874 182.569 115.861 182.556 115.834 182.556Z" fill="#4F5459"/>
<path d="M116.266 182.623C116.239 182.596 116.185 182.637 116.212 182.664C116.266 182.745 116.28 182.826 116.225 182.907C116.171 183.002 116.05 183.043 115.955 182.975C116.023 182.88 116.09 182.799 116.158 182.705C116.185 182.677 116.144 182.637 116.117 182.664C116.036 182.759 115.941 182.853 115.86 182.961C115.833 182.989 115.847 183.016 115.874 183.029C115.874 183.029 115.874 183.043 115.887 183.043C115.982 183.191 116.198 183.137 116.293 183.016C116.388 182.894 116.374 182.732 116.266 182.623Z" fill="#4F5459"/>
<path d="M116.321 183.314C116.294 183.314 116.281 183.3 116.267 183.286C116.24 183.273 116.24 183.273 116.253 183.259C116.267 183.232 116.308 183.192 116.321 183.178C116.335 183.165 116.335 183.165 116.348 183.151C116.348 183.165 116.362 183.165 116.362 183.178C116.402 183.205 116.443 183.232 116.497 183.219C116.551 183.219 116.551 183.151 116.51 183.138C116.47 183.124 116.443 183.124 116.416 183.097C116.416 183.097 116.416 183.097 116.402 183.097C116.429 183.057 116.47 183.029 116.497 182.989C116.497 183.002 116.51 183.016 116.524 183.016C116.551 183.029 116.578 183.043 116.605 183.07C116.659 183.111 116.713 183.016 116.646 182.975C116.619 182.962 116.592 182.948 116.565 182.935C116.537 182.921 116.524 182.935 116.51 182.948C116.497 182.935 116.47 182.921 116.456 182.948C116.389 183.016 116.321 183.07 116.253 183.138C116.213 183.178 116.145 183.219 116.132 183.286C116.118 183.341 116.186 183.381 116.226 183.422C116.267 183.462 116.308 183.476 116.362 183.449C116.402 183.395 116.362 183.314 116.321 183.314Z" fill="#4F5459"/>
<path d="M116.753 183.733C116.74 183.692 116.672 183.449 116.645 183.462C116.659 183.449 116.767 183.489 116.794 183.503C116.835 183.503 116.875 183.503 116.916 183.476C117.051 183.394 116.956 183.192 116.835 183.138C116.821 183.124 116.794 183.137 116.794 183.151C116.78 183.151 116.78 183.151 116.767 183.165C116.645 183.273 116.537 183.381 116.429 183.503C116.388 183.557 116.456 183.624 116.51 183.57C116.523 183.543 116.551 183.53 116.564 183.503C116.564 183.516 116.564 183.516 116.578 183.53C116.605 183.611 116.645 183.692 116.659 183.773C116.645 183.841 116.767 183.8 116.753 183.733ZM116.699 183.354C116.686 183.354 116.686 183.354 116.672 183.354C116.713 183.313 116.753 183.259 116.794 183.219C116.835 183.246 116.889 183.3 116.862 183.354C116.835 183.422 116.74 183.367 116.699 183.354Z" fill="#4F5459"/>
<path d="M126.369 178.201C126.545 178.363 126.721 178.525 126.951 178.607C127.167 178.688 127.451 178.661 127.6 178.485C127.749 178.323 127.735 178.066 127.654 177.863C127.559 177.66 127.41 177.498 127.248 177.349C126.978 177.092 126.707 176.835 126.437 176.578C125.233 175.455 124.002 174.373 122.771 173.291C122.569 173.116 122.366 172.94 122.163 172.764C121.595 172.277 121.04 171.777 120.432 171.33C120.31 171.249 120.161 171.155 120.026 171.209C119.958 171.236 119.904 171.303 119.864 171.357C119.553 171.777 119.593 171.844 119.958 172.196C120.256 172.493 120.567 172.777 120.878 173.061C121.487 173.643 122.109 174.225 122.717 174.793C123.326 175.374 123.948 175.942 124.557 176.524C124.868 176.808 125.179 177.105 125.476 177.389C125.76 177.633 126.072 178.039 126.369 178.201Z" fill="#B3BFC9"/>
<defs>
<linearGradient id="paint0_linear" x1="321.066" y1="274.371" x2="267.838" y2="274.371" gradientUnits="userSpaceOnUse">
<stop stop-color="#4D4D4D"/>
<stop offset="1"/>
</linearGradient>
<linearGradient id="paint1_linear" x1="321.066" y1="274.371" x2="267.838" y2="274.371" gradientUnits="userSpaceOnUse">
<stop/>
<stop offset="1"/>
</linearGradient>
<linearGradient id="paint2_linear" x1="160.263" y1="275.528" x2="243.162" y2="275.528" gradientUnits="userSpaceOnUse">
<stop stop-color="#4D4D4D"/>
<stop offset="1"/>
</linearGradient>
<linearGradient id="paint3_linear" x1="160.263" y1="275.528" x2="243.162" y2="275.528" gradientUnits="userSpaceOnUse">
<stop/>
<stop offset="1"/>
</linearGradient>
<linearGradient id="paint4_linear" x1="76.7286" y1="275.493" x2="118.811" y2="275.493" gradientUnits="userSpaceOnUse">
<stop stop-color="white"/>
<stop offset="1"/>
</linearGradient>
<linearGradient id="paint5_linear" x1="76.7286" y1="275.493" x2="118.811" y2="275.493" gradientUnits="userSpaceOnUse">
<stop/>
<stop offset="1"/>
</linearGradient>
</defs>
</svg>
