<svg width="56" height="56" viewBox="0 0 56 56" fill="none" xmlns="http://www.w3.org/2000/svg">
<circle cx="28" cy="28" r="28" fill="#3AD2FF"/>
<path d="M16.3305 39.0539C13.5674 36.2874 11.9078 32.6083 11.6626 28.706C11.4174 24.8036 12.6034 20.9458 14.9985 17.8551C17.3935 14.7645 20.8333 12.6532 24.6734 11.9167C28.5134 11.1802 32.4902 11.8691 35.8588 13.8543L37.7665 11.9466C33.8847 9.46323 29.2223 8.50124 24.6745 9.24536C20.1267 9.98948 16.014 12.3873 13.1261 15.9784C10.2381 19.5695 8.77845 24.1008 9.02729 28.7023C9.27614 33.3039 11.216 37.6514 14.4743 40.9101C17.4828 43.9166 21.426 45.8081 25.6537 46.2726C29.8815 46.7371 34.1413 45.747 37.7308 43.4655L35.8185 41.5532C29.6638 45.1609 21.6048 44.3282 16.3305 39.0539V39.0539Z" fill="white"/>
<path d="M46.1534 35.9627C47.158 33.5381 47.6751 30.9394 47.6751 28.315C47.6751 25.6905 47.158 23.0918 46.1534 20.6672C46.0807 20.4924 46.0056 20.3187 45.928 20.146C44.9359 17.9238 43.544 15.9028 41.8216 14.1835L40.8939 13.2554L39.9655 14.1835L25.834 28.3149L39.995 42.476L40.8939 43.3745L41.8216 42.4464C43.5153 40.7555 44.8896 38.7724 45.8782 36.5929C45.9735 36.3844 46.0652 36.1743 46.1534 35.9627V35.9627ZM40.8577 17.0036C43.5627 20.1515 45.0501 24.1645 45.0501 28.315C45.0501 32.4654 43.5627 36.4784 40.8577 39.6263L29.5463 28.3149L40.8577 17.0036Z" fill="white"/>
</svg>
