<svg width="31" height="38" viewBox="0 0 31 38" fill="none" xmlns="http://www.w3.org/2000/svg">
<path d="M15.3237 36.157C14.291 36.2575 13.208 36.3971 12.3706 37.0167C12.2478 37.1061 12.1306 37.2177 12.1083 37.3684C12.0692 37.6978 12.5158 37.8318 12.8507 37.8429C18.863 38.0327 24.8753 38.0495 30.8876 37.8987C30.9657 37.4856 30.5024 37.1954 30.1116 37.0558C25.4726 35.3643 20.147 35.6881 15.3237 36.157Z" fill="url(#paint0_linear)"/>
<path d="M15.3237 36.157C14.291 36.2575 13.208 36.3971 12.3706 37.0167C12.2478 37.1061 12.1306 37.2177 12.1083 37.3684C12.0692 37.6978 12.5158 37.8318 12.8507 37.8429C18.863 38.0327 24.8753 38.0495 30.8876 37.8987C30.9657 37.4856 30.5024 37.1954 30.1116 37.0558C25.4726 35.3643 20.147 35.6881 15.3237 36.157Z" fill="url(#paint1_linear)"/>
<path d="M11.9965 28.0511C11.6336 28.8048 11.7955 29.9938 11.9574 31.0266C12.0802 31.8025 12.2924 32.6288 12.9064 33.1144C13.2525 33.388 13.6824 33.5219 14.1122 33.628C16.0772 34.1025 18.1707 34.0355 20.0966 33.4382C20.4818 33.3154 20.8726 33.1702 21.1908 32.9246C21.6988 32.5283 21.9723 31.903 22.1733 31.289C22.4468 30.4516 23.1223 28.5647 22.2849 28.1014C21.548 27.6939 19.1811 28.1963 18.2991 28.1907C17.6292 28.1907 16.9593 28.1795 16.3005 28.0232C15.5469 27.8502 14.81 27.4873 14.0508 27.3478C12.8785 27.13 12.2812 27.4594 11.9965 28.0511Z" fill="#2F3F47"/>
<path d="M16.7862 34.7168C16.7918 34.6498 16.7973 34.5829 16.8029 34.5103C16.2223 34.1139 15.2008 34.2423 14.5867 34.4433C13.928 34.6554 13.9279 35.0685 13.9335 35.7496C13.9391 36.1348 13.9726 36.5758 14.2685 36.8214C14.4974 37.0168 14.8211 37.0391 15.117 37.0614C15.385 37.0782 15.6529 37.0949 15.9209 37.1061C16.1051 37.1173 16.3117 37.1228 16.4568 37C16.6019 36.8772 16.6243 36.6651 16.641 36.4809C16.6913 35.8947 16.7359 35.3086 16.7862 34.7168Z" fill="#2F3F47"/>
<path d="M17.3224 34.717C17.3168 34.65 17.3112 34.583 17.3056 34.5104C17.8862 34.1141 18.9078 34.2424 19.5218 34.4434C20.1806 34.6555 20.1806 35.0686 20.175 35.7497C20.1694 36.1349 20.1359 36.5759 19.8401 36.8215C19.6112 37.0169 19.2874 37.0392 18.9915 37.0616C18.7236 37.0783 18.4556 37.0951 18.1876 37.1062C18.0034 37.1174 17.7969 37.123 17.6517 37.0002C17.5066 36.8773 17.4843 36.6652 17.4675 36.481C17.4173 35.8948 17.3726 35.3087 17.3224 34.717Z" fill="#2F3F47"/>
<path d="M3.26013 6.72078C3.27688 6.86034 3.29364 7.00548 3.2434 7.13946C3.20432 7.24553 3.12615 7.32926 3.04799 7.41299C2.71863 7.75352 2.36136 8.07172 1.97617 8.35084C1.54074 8.28943 1.11647 8.17223 0.714535 7.99359C0.641963 7.9601 0.563817 7.92102 0.513575 7.85403C0.474498 7.80379 0.463341 7.73679 0.452177 7.67539C0.301451 6.96083 0.150726 6.24068 0 5.52613C0.223298 5.3754 0.468913 5.2526 0.720123 5.1577C0.820607 5.58755 0.921079 6.02298 1.02156 6.45283C1.11646 6.86593 1.2728 7.34602 1.68032 7.46325C1.92595 7.25112 2.17155 7.03339 2.41717 6.82126C2.46183 6.78218 2.50092 6.74311 2.52883 6.69287C2.55674 6.63146 2.54558 6.5589 2.53442 6.48632C2.47301 6.06764 2.3781 5.64893 2.24971 5.24142C2.45626 5.20234 2.65725 5.16328 2.8638 5.12421C3.12059 5.60988 3.19314 6.1737 3.26013 6.72078Z" fill="#2F3F47"/>
<path d="M1.35099 8.36209C1.34541 8.38442 1.351 8.40674 1.35658 8.42907C1.41798 8.68586 1.4794 8.94266 1.54081 9.19945C1.94274 9.10455 2.33909 8.97616 2.72428 8.82544C2.68521 8.60214 2.62379 8.38441 2.54005 8.17786C2.52331 8.1332 2.49537 8.08295 2.45071 8.0662C2.4228 8.05503 2.38932 8.06062 2.36141 8.0662C2.04321 8.12202 1.7306 8.2002 1.42915 8.30069C1.39566 8.31743 1.36215 8.33417 1.35099 8.36209Z" fill="#2F3F47"/>
<path d="M1.43486 9.44536C1.39579 9.91987 2.04891 10.7963 2.24988 11.1871C2.51784 11.7174 2.7858 12.2533 3.16541 12.7055C3.54501 13.1632 4.04743 13.5373 4.628 13.6601C4.95737 13.7271 5.29789 13.7103 5.63284 13.6657C6.63768 13.5373 7.61461 13.1744 8.46314 12.6162C8.53013 12.5715 8.60269 12.5213 8.63061 12.4431C8.65852 12.365 8.63061 12.2757 8.6027 12.1919C8.49663 11.8737 8.39058 11.522 8.22869 11.2318C7.94398 10.7182 8.12261 10.8075 7.66485 10.8466C7.31316 10.8745 6.81073 11.2429 6.43671 11.3378C6.00128 11.4439 5.5491 11.4997 5.10809 11.5555C4.82896 11.589 4.51636 11.6169 4.2819 11.4606C4.1535 11.3713 4.06419 11.2429 3.98046 11.1089C3.47804 10.3274 3.02027 9.51794 2.61834 8.68616C2.55135 8.54101 1.52417 9.14391 1.45718 9.37279C1.44043 9.39512 1.43486 9.41745 1.43486 9.44536Z" fill="#516770"/>
<g opacity="0.15">
<path opacity="0.15" d="M5.6271 13.3587C5.41497 12.8451 5.32008 12.3315 5.29217 11.7845C5.28658 11.6784 5.14145 11.6616 5.1247 11.7733C5.0298 12.3594 5.1247 12.9568 5.33125 13.5094C5.39824 13.7104 5.70525 13.5597 5.6271 13.3587Z" fill="#272525"/>
<path opacity="0.15" d="M4.66117 13.3979C4.51603 12.8731 4.57186 12.4544 4.74492 11.9464C4.76725 11.8794 4.66676 11.8292 4.63326 11.8906C4.47695 12.1474 4.3039 12.354 4.25366 12.661C4.20342 12.9513 4.21458 13.236 4.32065 13.5151C4.38764 13.7105 4.71699 13.5989 4.66117 13.3979Z" fill="#272525"/>
</g>
<path d="M9.88647 8.93138C9.12726 9.29982 8.94304 10.2879 8.87605 11.1309C8.44062 16.3114 8.60809 21.5477 9.36731 26.6891C9.46221 27.3144 9.59621 27.9954 10.0875 28.3918C10.4057 28.6486 10.8243 28.7379 11.2263 28.8104C15.3182 29.5585 19.5441 29.5641 23.636 28.8272C23.77 28.8048 23.9152 28.7769 24.0268 28.6876C24.1775 28.5704 24.2334 28.375 24.278 28.1908C25.7462 22.4465 25.4001 16.4174 25.0261 10.5056C25.0149 10.2991 24.9982 10.0869 24.9033 9.90831C24.786 9.69059 24.5683 9.54543 24.345 9.43378C23.0722 8.76388 21.5817 8.70808 20.147 8.68575C17.0655 8.62992 13.984 8.65784 10.9025 8.75832C10.5564 8.76391 10.1935 8.78065 9.88647 8.93138Z" fill="#EAF1F2"/>
<path d="M12.0133 7.29021C15.3795 7.97685 18.8183 7.92101 22.1733 7.1283C22.8823 6.96083 23.6471 6.71521 24.1272 5.91692C24.9534 4.53806 24.4175 2.19902 23.3792 1.17743C22.3408 0.155843 21.0178 0.0832547 19.7729 0.0441776C17.7744 -0.0172293 15.7647 -0.0786252 13.7885 0.334476C12.6441 0.574521 11.4439 1.03785 10.6791 2.31065C9.91432 3.58345 9.86406 5.88342 10.841 6.78778C11.1815 7.10598 11.6058 7.20648 12.0133 7.29021Z" fill="#EAF1F2"/>
<path d="M12.8677 34.9903C15.6534 35.208 18.4948 35.1912 21.2749 34.94C21.8611 34.8842 22.4919 34.8061 22.8882 34.5548C23.5693 34.1138 23.1282 33.3714 22.2686 33.0476C21.4089 32.7238 20.3147 32.7015 19.282 32.6847C17.6296 32.6624 15.966 32.6456 14.3303 32.7796C13.3869 32.8578 12.3877 33.0029 11.7568 33.4104C11.126 33.818 11.0814 34.5493 11.8908 34.834C12.1811 34.9289 12.5272 34.9624 12.8677 34.9903Z" fill="#EAF1F2"/>
<path d="M13.9172 5.62117C16.139 5.91704 18.3999 5.89471 20.6161 5.54859C21.085 5.47602 21.5874 5.36996 21.9001 5.02384C22.4471 4.42652 22.0899 3.41608 21.4088 2.97506C20.7277 2.53405 19.8513 2.50055 19.0307 2.4838C17.7132 2.45589 16.3902 2.428 15.0839 2.61222C14.3303 2.71829 13.5376 2.91366 13.0351 3.46632C12.5327 4.01898 12.4992 5.01267 13.1412 5.39786C13.3701 5.543 13.6492 5.58767 13.9172 5.62117Z" fill="#3AD2FF"/>
<path d="M14.3804 8.98731C14.1013 8.98731 13.7719 9.02081 13.638 9.26644C13.571 9.38925 13.571 9.53438 13.5766 9.67394C13.6715 13.0569 13.7719 16.4454 13.8668 19.8284C16.0049 20.3978 18.2825 20.9672 20.3871 20.2862C20.6718 16.5738 20.7388 12.8504 20.5825 9.12688C19.7117 8.93707 18.8073 8.94266 17.9141 8.95382C16.7418 8.96499 15.5639 8.97615 14.3804 8.98731Z" fill="#E2ECED"/>
<path d="M20.7723 9.12679C20.7667 9.04863 20.7165 8.96489 20.6383 8.94814C19.6781 8.75276 18.7068 8.75834 17.7355 8.7695C16.619 8.78067 15.5025 8.79182 14.386 8.79741C13.6435 8.81974 13.3868 9.13237 13.4035 9.86367C13.437 10.969 13.4649 12.0743 13.4984 13.1852C13.5598 15.3959 13.6268 17.6121 13.6882 19.8227C13.6882 19.9065 13.744 19.979 13.8222 20.0014C15.9714 20.5764 18.2435 21.1346 20.4374 20.4591C20.5211 20.4312 20.5658 20.3642 20.5713 20.2805C20.856 16.5738 20.923 12.8503 20.7723 9.12679ZM20.2196 20.1465C18.1709 20.7327 16.0607 20.2191 14.0566 19.6832C14.0064 17.908 13.9561 16.1327 13.9059 14.3575C13.878 13.4476 13.8557 12.5377 13.8277 11.6222C13.8166 11.1644 13.7998 10.7122 13.7887 10.2544C13.7831 10.0591 13.7775 9.86369 13.7719 9.6683C13.7608 9.28311 14.0734 9.17703 14.3916 9.16587C15.3852 9.1547 16.3789 9.14913 17.3726 9.13796C18.3886 9.1268 19.4158 9.0933 20.4206 9.27752C20.549 12.9061 20.4876 16.5291 20.2196 20.1465Z" fill="#2F3F47"/>
<path opacity="0.2" d="M17.6239 19.2813C17.6741 19.2031 17.702 19.1194 17.7299 19.0356C17.7634 18.9184 17.7913 18.7956 17.769 18.6728C17.7522 18.5779 17.702 18.4941 17.6518 18.4048C17.635 18.3769 17.6183 18.3434 17.6015 18.3155C17.5736 18.2708 17.5513 18.2206 17.5122 18.1815C17.4173 18.0755 17.2666 18.0419 17.127 18.014C17.0266 17.9973 16.9261 17.9805 16.82 17.9917C16.5911 18.0196 16.3957 18.1927 16.3176 18.4104C16.2394 18.6225 16.2673 18.8682 16.3622 19.0747C16.4851 19.3371 16.7363 19.5548 17.0266 19.5771C17.2666 19.5939 17.5011 19.4766 17.6239 19.2813Z" fill="#272525"/>
<path d="M17.4621 19.2477C17.5123 19.1696 17.5402 19.0859 17.5681 19.0021C17.6016 18.8849 17.6295 18.7621 17.6072 18.6392C17.5905 18.5443 17.5402 18.4606 17.4956 18.3713C17.4788 18.3434 17.4621 18.3099 17.4453 18.282C17.4174 18.2373 17.3951 18.1871 17.356 18.148C17.2611 18.0419 17.1104 18.0084 16.9708 17.9805C16.8703 17.9638 16.7698 17.947 16.6638 17.9582C16.4349 17.9861 16.2395 18.1592 16.1613 18.3769C16.0832 18.5946 16.1111 18.8347 16.206 19.0412C16.3288 19.3036 16.58 19.5213 16.8703 19.5436C17.1048 19.5659 17.3392 19.4431 17.4621 19.2477Z" fill="#83959E"/>
<path opacity="0.2" d="M17.0095 18.8848C17.0542 18.8234 17.0598 18.7508 17.0598 18.6783C17.0598 18.6559 17.0598 18.628 17.0542 18.6057C17.043 18.5722 17.0151 18.5443 16.9816 18.522C16.8867 18.4606 16.7527 18.455 16.6522 18.5164C16.5573 18.5778 16.5015 18.7118 16.5406 18.8178C16.602 18.8848 16.6746 18.9406 16.7639 18.963C16.8532 18.9797 16.9537 18.9574 17.0095 18.8848Z" fill="black"/>
<path opacity="0.2" d="M17.6735 27.4204C17.7238 27.3423 17.7517 27.2585 17.7796 27.1748C17.8131 27.0576 17.841 26.9347 17.8187 26.8119C17.8019 26.717 17.7517 26.6333 17.707 26.544C17.6903 26.5161 17.6735 26.4825 17.6568 26.4546C17.6289 26.41 17.6065 26.3597 17.5675 26.3207C17.4726 26.2146 17.3218 26.1811 17.1823 26.1532C17.0818 26.1364 16.9813 26.1197 16.8752 26.1309C16.6464 26.1588 16.451 26.3318 16.3728 26.5496C16.2947 26.7617 16.3226 27.0073 16.4175 27.2139C16.5403 27.4762 16.7915 27.6939 17.0818 27.7163C17.3107 27.7386 17.5507 27.6214 17.6735 27.4204Z" fill="#272525"/>
<path d="M17.5118 27.3927C17.5621 27.3145 17.59 27.2308 17.6179 27.147C17.6514 27.0298 17.6793 26.907 17.657 26.7842C17.6402 26.6893 17.59 26.6055 17.5397 26.5162C17.523 26.4883 17.5062 26.4548 17.4895 26.4269C17.4616 26.3822 17.4393 26.332 17.4002 26.2929C17.3053 26.1869 17.1546 26.1534 17.015 26.1255C16.9145 26.1087 16.814 26.0919 16.708 26.1031C16.4791 26.131 16.2837 26.3041 16.2055 26.5218C16.1274 26.7339 16.1553 26.9795 16.2502 27.1861C16.373 27.4485 16.6242 27.6662 16.9145 27.6885C17.149 27.7053 17.389 27.5881 17.5118 27.3927Z" fill="#83959E"/>
<path opacity="0.2" d="M17.0597 27.0297C17.1044 26.9683 17.1044 26.8958 17.1099 26.8232C17.1099 26.8009 17.1099 26.7729 17.1044 26.7506C17.0932 26.7171 17.0653 26.6892 17.0318 26.6669C16.9369 26.6055 16.8029 26.5999 16.7024 26.6613C16.6075 26.7227 16.5517 26.8567 16.5908 26.9628C16.6522 27.0297 16.7248 27.0856 16.8141 27.1079C16.8978 27.1246 17.0039 27.1023 17.0597 27.0297Z" fill="black"/>
<path d="M25.244 19.8504C25.3166 19.7276 25.3892 19.6048 25.5064 19.5266C25.6013 19.4652 25.7129 19.4485 25.8246 19.4262C26.2935 19.3536 26.768 19.3201 27.2425 19.3257C27.5551 19.6327 27.8231 19.99 28.0352 20.3752C28.0743 20.4477 28.1134 20.5259 28.1134 20.604C28.1134 20.6654 28.0855 20.7269 28.0576 20.7883C27.745 21.4526 27.4323 22.1113 27.1197 22.7756C26.8517 22.7645 26.5838 22.7142 26.3214 22.6305C26.5 22.2285 26.6843 21.821 26.8629 21.4191C27.036 21.0339 27.2034 20.5594 26.9522 20.2188C26.6284 20.2412 26.3047 20.2635 25.9753 20.2858C25.9195 20.2914 25.8581 20.2914 25.8134 20.3193C25.752 20.3528 25.7185 20.4142 25.685 20.4757C25.4785 20.8497 25.3054 21.2404 25.1603 21.6368C24.9705 21.5475 24.7863 21.4526 24.5965 21.3632C24.6802 20.8217 24.9649 20.3305 25.244 19.8504Z" fill="#2F3F47"/>
<path d="M27.7619 19.6997C27.7786 19.6885 27.7898 19.6662 27.801 19.6439C27.907 19.4038 28.0131 19.1582 28.1192 18.9181C27.7396 18.7507 27.3488 18.6111 26.9468 18.4995C26.8408 18.7004 26.7626 18.907 26.7012 19.1247C26.6901 19.1693 26.6789 19.2252 26.7068 19.2642C26.7236 19.2922 26.7515 19.3033 26.7794 19.3201C27.0641 19.4708 27.36 19.5936 27.667 19.6941C27.6949 19.7053 27.734 19.7164 27.7619 19.6997Z" fill="#2F3F47"/>
<path d="M28.3478 18.7844C28.6604 18.4327 28.6716 17.3386 28.7497 16.9087C28.8558 16.3282 28.9674 15.7364 28.9395 15.1447C28.9116 14.553 28.7441 13.9501 28.3534 13.5035C28.1301 13.2523 27.8509 13.0569 27.5551 12.895C26.673 12.3925 25.6794 12.0911 24.669 12.0185C24.5908 12.0129 24.5015 12.0129 24.4345 12.052C24.3619 12.0967 24.3284 12.186 24.3061 12.2697C24.2 12.5879 24.0716 12.9285 24.0214 13.2578C23.9376 13.8384 23.8483 13.6542 24.2391 13.9054C24.535 14.0952 25.1602 14.1064 25.5175 14.2571C25.9306 14.4357 26.3213 14.6646 26.7065 14.8879C26.9522 15.033 27.2145 15.1949 27.3094 15.4629C27.3597 15.608 27.3485 15.7699 27.3373 15.9262C27.2648 16.8529 27.142 17.774 26.9577 18.684C26.9242 18.8403 28.1077 18.9798 28.2975 18.8403C28.3087 18.8235 28.3254 18.8068 28.3478 18.7844Z" fill="#516770"/>
<g opacity="0.15">
<path opacity="0.15" d="M27.3708 13.1348C27.2312 13.6707 26.9967 14.1397 26.6897 14.5974C26.6283 14.6867 26.7399 14.7872 26.8181 14.7091C27.2479 14.296 27.5327 13.7656 27.7001 13.2018C27.7615 12.9897 27.4266 12.9227 27.3708 13.1348Z" fill="#272525"/>
<path opacity="0.15" d="M28.1633 13.6822C27.9623 14.1902 27.6665 14.4917 27.2199 14.7931C27.1585 14.8322 27.2087 14.9326 27.2757 14.9047C27.5604 14.7931 27.8172 14.7373 28.046 14.5195C28.2582 14.3186 28.4257 14.0785 28.5094 13.7994C28.5708 13.604 28.2358 13.4924 28.1633 13.6822Z" fill="#272525"/>
</g>
<defs>
<linearGradient id="paint0_linear" x1="12.1073" y1="36.8893" x2="30.8971" y2="36.8893" gradientUnits="userSpaceOnUse">
<stop stop-color="#4D4D4D"/>
<stop offset="1"/>
</linearGradient>
<linearGradient id="paint1_linear" x1="12.1073" y1="36.8893" x2="30.8971" y2="36.8893" gradientUnits="userSpaceOnUse">
<stop/>
<stop offset="1"/>
</linearGradient>
</defs>
</svg>
